G04 #@! TF.GenerationSoftware,KiCad,Pcbnew,(5.1.6)-1*
G04 #@! TF.CreationDate,2020-09-21T19:06:34+02:00*
G04 #@! TF.ProjectId,3003,33303033-2e6b-4696-9361-645f70636258,rev?*
G04 #@! TF.SameCoordinates,Original*
G04 #@! TF.FileFunction,Legend,Top*
G04 #@! TF.FilePolarity,Positive*
%FSLAX46Y46*%
G04 Gerber Fmt 4.6, Leading zero omitted, Abs format (unit mm)*
G04 Created by KiCad (PCBNEW (5.1.6)-1) date 2020-09-21 19:06:34*
%MOMM*%
%LPD*%
G01*
G04 APERTURE LIST*
%ADD10C,0.150000*%
G04 APERTURE END LIST*
D10*
X199564761Y-82151428D02*
X199564761Y-83103809D01*
X200517142Y-83199047D01*
X200421904Y-83103809D01*
X200326666Y-82913333D01*
X200326666Y-82437142D01*
X200421904Y-82246666D01*
X200517142Y-82151428D01*
X200707619Y-82056190D01*
X201183809Y-82056190D01*
X201374285Y-82151428D01*
X201469523Y-82246666D01*
X201564761Y-82437142D01*
X201564761Y-82913333D01*
X201469523Y-83103809D01*
X201374285Y-83199047D01*
X199564761Y-81389523D02*
X199564761Y-80056190D01*
X201564761Y-80913333D01*
X199564761Y-78913333D02*
X199564761Y-78722857D01*
X199660000Y-78532380D01*
X199755238Y-78437142D01*
X199945714Y-78341904D01*
X200326666Y-78246666D01*
X200802857Y-78246666D01*
X201183809Y-78341904D01*
X201374285Y-78437142D01*
X201469523Y-78532380D01*
X201564761Y-78722857D01*
X201564761Y-78913333D01*
X201469523Y-79103809D01*
X201374285Y-79199047D01*
X201183809Y-79294285D01*
X200802857Y-79389523D01*
X200326666Y-79389523D01*
X199945714Y-79294285D01*
X199755238Y-79199047D01*
X199660000Y-79103809D01*
X199564761Y-78913333D01*
X199564761Y-77008571D02*
X199564761Y-76818095D01*
X199660000Y-76627619D01*
X199755238Y-76532380D01*
X199945714Y-76437142D01*
X200326666Y-76341904D01*
X200802857Y-76341904D01*
X201183809Y-76437142D01*
X201374285Y-76532380D01*
X201469523Y-76627619D01*
X201564761Y-76818095D01*
X201564761Y-77008571D01*
X201469523Y-77199047D01*
X201374285Y-77294285D01*
X201183809Y-77389523D01*
X200802857Y-77484761D01*
X200326666Y-77484761D01*
X199945714Y-77389523D01*
X199755238Y-77294285D01*
X199660000Y-77199047D01*
X199564761Y-77008571D01*
X200993333Y-75580000D02*
X200993333Y-74627619D01*
X201564761Y-75770476D02*
X199564761Y-75103809D01*
X201564761Y-74437142D01*
X200802857Y-73770476D02*
X200802857Y-72246666D01*
X199564761Y-71484761D02*
X199564761Y-70246666D01*
X200326666Y-70913333D01*
X200326666Y-70627619D01*
X200421904Y-70437142D01*
X200517142Y-70341904D01*
X200707619Y-70246666D01*
X201183809Y-70246666D01*
X201374285Y-70341904D01*
X201469523Y-70437142D01*
X201564761Y-70627619D01*
X201564761Y-71199047D01*
X201469523Y-71389523D01*
X201374285Y-71484761D01*
X199564761Y-69008571D02*
X199564761Y-68818095D01*
X199660000Y-68627619D01*
X199755238Y-68532380D01*
X199945714Y-68437142D01*
X200326666Y-68341904D01*
X200802857Y-68341904D01*
X201183809Y-68437142D01*
X201374285Y-68532380D01*
X201469523Y-68627619D01*
X201564761Y-68818095D01*
X201564761Y-69008571D01*
X201469523Y-69199047D01*
X201374285Y-69294285D01*
X201183809Y-69389523D01*
X200802857Y-69484761D01*
X200326666Y-69484761D01*
X199945714Y-69389523D01*
X199755238Y-69294285D01*
X199660000Y-69199047D01*
X199564761Y-69008571D01*
X199564761Y-67103809D02*
X199564761Y-66913333D01*
X199660000Y-66722857D01*
X199755238Y-66627619D01*
X199945714Y-66532380D01*
X200326666Y-66437142D01*
X200802857Y-66437142D01*
X201183809Y-66532380D01*
X201374285Y-66627619D01*
X201469523Y-66722857D01*
X201564761Y-66913333D01*
X201564761Y-67103809D01*
X201469523Y-67294285D01*
X201374285Y-67389523D01*
X201183809Y-67484761D01*
X200802857Y-67580000D01*
X200326666Y-67580000D01*
X199945714Y-67484761D01*
X199755238Y-67389523D01*
X199660000Y-67294285D01*
X199564761Y-67103809D01*
X199564761Y-65770476D02*
X199564761Y-64532380D01*
X200326666Y-65199047D01*
X200326666Y-64913333D01*
X200421904Y-64722857D01*
X200517142Y-64627619D01*
X200707619Y-64532380D01*
X201183809Y-64532380D01*
X201374285Y-64627619D01*
X201469523Y-64722857D01*
X201564761Y-64913333D01*
X201564761Y-65484761D01*
X201469523Y-65675238D01*
X201374285Y-65770476D01*
X201564761Y-61008571D02*
X200612380Y-61675238D01*
X201564761Y-62151428D02*
X199564761Y-62151428D01*
X199564761Y-61389523D01*
X199660000Y-61199047D01*
X199755238Y-61103809D01*
X199945714Y-61008571D01*
X200231428Y-61008571D01*
X200421904Y-61103809D01*
X200517142Y-61199047D01*
X200612380Y-61389523D01*
X200612380Y-62151428D01*
X200517142Y-60151428D02*
X200517142Y-59484761D01*
X201564761Y-59199047D02*
X201564761Y-60151428D01*
X199564761Y-60151428D01*
X199564761Y-59199047D01*
X199564761Y-58627619D02*
X201564761Y-57960952D01*
X199564761Y-57294285D01*
X201564761Y-53960952D02*
X200612380Y-54627619D01*
X201564761Y-55103809D02*
X199564761Y-55103809D01*
X199564761Y-54341904D01*
X199660000Y-54151428D01*
X199755238Y-54056190D01*
X199945714Y-53960952D01*
X200231428Y-53960952D01*
X200421904Y-54056190D01*
X200517142Y-54151428D01*
X200612380Y-54341904D01*
X200612380Y-55103809D01*
X168666666Y-82404761D02*
X168809523Y-82452380D01*
X169047619Y-82452380D01*
X169142857Y-82404761D01*
X169190476Y-82357142D01*
X169238095Y-82261904D01*
X169238095Y-82166666D01*
X169190476Y-82071428D01*
X169142857Y-82023809D01*
X169047619Y-81976190D01*
X168857142Y-81928571D01*
X168761904Y-81880952D01*
X168714285Y-81833333D01*
X168666666Y-81738095D01*
X168666666Y-81642857D01*
X168714285Y-81547619D01*
X168761904Y-81500000D01*
X168857142Y-81452380D01*
X169095238Y-81452380D01*
X169238095Y-81500000D01*
X169571428Y-81452380D02*
X169809523Y-82452380D01*
X170000000Y-81738095D01*
X170190476Y-82452380D01*
X170428571Y-81452380D01*
X170714285Y-81452380D02*
X171380952Y-81452380D01*
X170952380Y-82452380D01*
X169428571Y-70071428D02*
X168666666Y-70071428D01*
X169047619Y-70309523D02*
X169095238Y-70357142D01*
X169047619Y-70404761D01*
X169000000Y-70357142D01*
X169047619Y-70309523D01*
X169047619Y-70404761D01*
X169047619Y-69738095D02*
X169095238Y-69785714D01*
X169047619Y-69833333D01*
X169000000Y-69785714D01*
X169047619Y-69738095D01*
X169047619Y-69833333D01*
X170428571Y-70452380D02*
X169857142Y-70452380D01*
X170142857Y-70452380D02*
X170142857Y-69452380D01*
X170047619Y-69595238D01*
X169952380Y-69690476D01*
X169857142Y-69738095D01*
X171047619Y-69452380D02*
X171142857Y-69452380D01*
X171238095Y-69500000D01*
X171285714Y-69547619D01*
X171333333Y-69642857D01*
X171380952Y-69833333D01*
X171380952Y-70071428D01*
X171333333Y-70261904D01*
X171285714Y-70357142D01*
X171238095Y-70404761D01*
X171142857Y-70452380D01*
X171047619Y-70452380D01*
X170952380Y-70404761D01*
X170904761Y-70357142D01*
X170857142Y-70261904D01*
X170809523Y-70071428D01*
X170809523Y-69833333D01*
X170857142Y-69642857D01*
X170904761Y-69547619D01*
X170952380Y-69500000D01*
X171047619Y-69452380D01*
X220666666Y-32904761D02*
X220809523Y-32952380D01*
X221047619Y-32952380D01*
X221142857Y-32904761D01*
X221190476Y-32857142D01*
X221238095Y-32761904D01*
X221238095Y-32666666D01*
X221190476Y-32571428D01*
X221142857Y-32523809D01*
X221047619Y-32476190D01*
X220857142Y-32428571D01*
X220761904Y-32380952D01*
X220714285Y-32333333D01*
X220666666Y-32238095D01*
X220666666Y-32142857D01*
X220714285Y-32047619D01*
X220761904Y-32000000D01*
X220857142Y-31952380D01*
X221095238Y-31952380D01*
X221238095Y-32000000D01*
X221571428Y-31952380D02*
X221809523Y-32952380D01*
X222000000Y-32238095D01*
X222190476Y-32952380D01*
X222428571Y-31952380D01*
X222952380Y-32380952D02*
X222857142Y-32333333D01*
X222809523Y-32285714D01*
X222761904Y-32190476D01*
X222761904Y-32142857D01*
X222809523Y-32047619D01*
X222857142Y-32000000D01*
X222952380Y-31952380D01*
X223142857Y-31952380D01*
X223238095Y-32000000D01*
X223285714Y-32047619D01*
X223333333Y-32142857D01*
X223333333Y-32190476D01*
X223285714Y-32285714D01*
X223238095Y-32333333D01*
X223142857Y-32380952D01*
X222952380Y-32380952D01*
X222857142Y-32428571D01*
X222809523Y-32476190D01*
X222761904Y-32571428D01*
X222761904Y-32761904D01*
X222809523Y-32857142D01*
X222857142Y-32904761D01*
X222952380Y-32952380D01*
X223142857Y-32952380D01*
X223238095Y-32904761D01*
X223285714Y-32857142D01*
X223333333Y-32761904D01*
X223333333Y-32571428D01*
X223285714Y-32476190D01*
X223238095Y-32428571D01*
X223142857Y-32380952D01*
X218000000Y-20666666D02*
X218476190Y-20666666D01*
X217904761Y-20952380D02*
X218238095Y-19952380D01*
X218571428Y-20952380D01*
X218904761Y-20952380D02*
X218904761Y-19952380D01*
X219238095Y-20666666D01*
X219571428Y-19952380D01*
X219571428Y-20952380D01*
X220047619Y-20952380D02*
X220047619Y-19952380D01*
X220428571Y-19952380D01*
X220523809Y-20000000D01*
X220571428Y-20047619D01*
X220619047Y-20142857D01*
X220619047Y-20285714D01*
X220571428Y-20380952D01*
X220523809Y-20428571D01*
X220428571Y-20476190D01*
X220047619Y-20476190D01*
X221523809Y-20952380D02*
X221047619Y-20952380D01*
X221047619Y-19952380D01*
X222952380Y-20428571D02*
X222619047Y-20428571D01*
X222619047Y-20952380D02*
X222619047Y-19952380D01*
X223095238Y-19952380D01*
X224047619Y-20952380D02*
X223714285Y-20476190D01*
X223476190Y-20952380D02*
X223476190Y-19952380D01*
X223857142Y-19952380D01*
X223952380Y-20000000D01*
X224000000Y-20047619D01*
X224047619Y-20142857D01*
X224047619Y-20285714D01*
X224000000Y-20380952D01*
X223952380Y-20428571D01*
X223857142Y-20476190D01*
X223476190Y-20476190D01*
X224476190Y-20428571D02*
X224809523Y-20428571D01*
X224952380Y-20952380D02*
X224476190Y-20952380D01*
X224476190Y-19952380D01*
X224952380Y-19952380D01*
X226047619Y-21047619D02*
X225952380Y-21000000D01*
X225857142Y-20904761D01*
X225714285Y-20761904D01*
X225619047Y-20714285D01*
X225523809Y-20714285D01*
X225571428Y-20952380D02*
X225476190Y-20904761D01*
X225380952Y-20809523D01*
X225333333Y-20619047D01*
X225333333Y-20285714D01*
X225380952Y-20095238D01*
X225476190Y-20000000D01*
X225571428Y-19952380D01*
X225761904Y-19952380D01*
X225857142Y-20000000D01*
X225952380Y-20095238D01*
X226000000Y-20285714D01*
X226000000Y-20619047D01*
X225952380Y-20809523D01*
X225857142Y-20904761D01*
X225761904Y-20952380D01*
X225571428Y-20952380D01*
X102166666Y-65904761D02*
X102309523Y-65952380D01*
X102547619Y-65952380D01*
X102642857Y-65904761D01*
X102690476Y-65857142D01*
X102738095Y-65761904D01*
X102738095Y-65666666D01*
X102690476Y-65571428D01*
X102642857Y-65523809D01*
X102547619Y-65476190D01*
X102357142Y-65428571D01*
X102261904Y-65380952D01*
X102214285Y-65333333D01*
X102166666Y-65238095D01*
X102166666Y-65142857D01*
X102214285Y-65047619D01*
X102261904Y-65000000D01*
X102357142Y-64952380D01*
X102595238Y-64952380D01*
X102738095Y-65000000D01*
X103071428Y-64952380D02*
X103309523Y-65952380D01*
X103500000Y-65238095D01*
X103690476Y-65952380D01*
X103928571Y-64952380D01*
X104738095Y-65285714D02*
X104738095Y-65952380D01*
X104500000Y-64904761D02*
X104261904Y-65619047D01*
X104880952Y-65619047D01*
X103119047Y-53952380D02*
X103357142Y-53952380D01*
X103357142Y-53761904D01*
X103261904Y-53714285D01*
X103166666Y-53619047D01*
X103119047Y-53476190D01*
X103119047Y-53238095D01*
X103166666Y-53095238D01*
X103261904Y-53000000D01*
X103404761Y-52952380D01*
X103595238Y-52952380D01*
X103738095Y-53000000D01*
X103833333Y-53095238D01*
X103880952Y-53238095D01*
X103880952Y-53476190D01*
X103833333Y-53619047D01*
X103738095Y-53714285D01*
X103642857Y-53761904D01*
X103642857Y-53952380D01*
X103880952Y-53952380D01*
X16366666Y-49404761D02*
X16509523Y-49452380D01*
X16747619Y-49452380D01*
X16842857Y-49404761D01*
X16890476Y-49357142D01*
X16938095Y-49261904D01*
X16938095Y-49166666D01*
X16890476Y-49071428D01*
X16842857Y-49023809D01*
X16747619Y-48976190D01*
X16557142Y-48928571D01*
X16461904Y-48880952D01*
X16414285Y-48833333D01*
X16366666Y-48738095D01*
X16366666Y-48642857D01*
X16414285Y-48547619D01*
X16461904Y-48500000D01*
X16557142Y-48452380D01*
X16795238Y-48452380D01*
X16938095Y-48500000D01*
X17271428Y-48452380D02*
X17509523Y-49452380D01*
X17700000Y-48738095D01*
X17890476Y-49452380D01*
X18128571Y-48452380D01*
X18557142Y-49452380D02*
X18747619Y-49452380D01*
X18842857Y-49404761D01*
X18890476Y-49357142D01*
X18985714Y-49214285D01*
X19033333Y-49023809D01*
X19033333Y-48642857D01*
X18985714Y-48547619D01*
X18938095Y-48500000D01*
X18842857Y-48452380D01*
X18652380Y-48452380D01*
X18557142Y-48500000D01*
X18509523Y-48547619D01*
X18461904Y-48642857D01*
X18461904Y-48880952D01*
X18509523Y-48976190D01*
X18557142Y-49023809D01*
X18652380Y-49071428D01*
X18842857Y-49071428D01*
X18938095Y-49023809D01*
X18985714Y-48976190D01*
X19033333Y-48880952D01*
X17890476Y-36785714D02*
X17890476Y-37452380D01*
X17652380Y-36404761D02*
X17414285Y-37119047D01*
X18033333Y-37119047D01*
X101690476Y-49404761D02*
X101833333Y-49452380D01*
X102071428Y-49452380D01*
X102166666Y-49404761D01*
X102214285Y-49357142D01*
X102261904Y-49261904D01*
X102261904Y-49166666D01*
X102214285Y-49071428D01*
X102166666Y-49023809D01*
X102071428Y-48976190D01*
X101880952Y-48928571D01*
X101785714Y-48880952D01*
X101738095Y-48833333D01*
X101690476Y-48738095D01*
X101690476Y-48642857D01*
X101738095Y-48547619D01*
X101785714Y-48500000D01*
X101880952Y-48452380D01*
X102119047Y-48452380D01*
X102261904Y-48500000D01*
X102595238Y-48452380D02*
X102833333Y-49452380D01*
X103023809Y-48738095D01*
X103214285Y-49452380D01*
X103452380Y-48452380D01*
X104357142Y-49452380D02*
X103785714Y-49452380D01*
X104071428Y-49452380D02*
X104071428Y-48452380D01*
X103976190Y-48595238D01*
X103880952Y-48690476D01*
X103785714Y-48738095D01*
X104738095Y-48547619D02*
X104785714Y-48500000D01*
X104880952Y-48452380D01*
X105119047Y-48452380D01*
X105214285Y-48500000D01*
X105261904Y-48547619D01*
X105309523Y-48642857D01*
X105309523Y-48738095D01*
X105261904Y-48880952D01*
X104690476Y-49452380D01*
X105309523Y-49452380D01*
X103261904Y-37166666D02*
X103738095Y-37166666D01*
X103166666Y-37452380D02*
X103500000Y-36452380D01*
X103833333Y-37452380D01*
X34890476Y-49404761D02*
X35033333Y-49452380D01*
X35271428Y-49452380D01*
X35366666Y-49404761D01*
X35414285Y-49357142D01*
X35461904Y-49261904D01*
X35461904Y-49166666D01*
X35414285Y-49071428D01*
X35366666Y-49023809D01*
X35271428Y-48976190D01*
X35080952Y-48928571D01*
X34985714Y-48880952D01*
X34938095Y-48833333D01*
X34890476Y-48738095D01*
X34890476Y-48642857D01*
X34938095Y-48547619D01*
X34985714Y-48500000D01*
X35080952Y-48452380D01*
X35319047Y-48452380D01*
X35461904Y-48500000D01*
X35795238Y-48452380D02*
X36033333Y-49452380D01*
X36223809Y-48738095D01*
X36414285Y-49452380D01*
X36652380Y-48452380D01*
X37557142Y-49452380D02*
X36985714Y-49452380D01*
X37271428Y-49452380D02*
X37271428Y-48452380D01*
X37176190Y-48595238D01*
X37080952Y-48690476D01*
X36985714Y-48738095D01*
X38176190Y-48452380D02*
X38271428Y-48452380D01*
X38366666Y-48500000D01*
X38414285Y-48547619D01*
X38461904Y-48642857D01*
X38509523Y-48833333D01*
X38509523Y-49071428D01*
X38461904Y-49261904D01*
X38414285Y-49357142D01*
X38366666Y-49404761D01*
X38271428Y-49452380D01*
X38176190Y-49452380D01*
X38080952Y-49404761D01*
X38033333Y-49357142D01*
X37985714Y-49261904D01*
X37938095Y-49071428D01*
X37938095Y-48833333D01*
X37985714Y-48642857D01*
X38033333Y-48547619D01*
X38080952Y-48500000D01*
X38176190Y-48452380D01*
X36938095Y-36452380D02*
X36461904Y-36452380D01*
X36414285Y-36928571D01*
X36461904Y-36880952D01*
X36557142Y-36833333D01*
X36795238Y-36833333D01*
X36890476Y-36880952D01*
X36938095Y-36928571D01*
X36985714Y-37023809D01*
X36985714Y-37261904D01*
X36938095Y-37357142D01*
X36890476Y-37404761D01*
X36795238Y-37452380D01*
X36557142Y-37452380D01*
X36461904Y-37404761D01*
X36414285Y-37357142D01*
X149666666Y-65904761D02*
X149809523Y-65952380D01*
X150047619Y-65952380D01*
X150142857Y-65904761D01*
X150190476Y-65857142D01*
X150238095Y-65761904D01*
X150238095Y-65666666D01*
X150190476Y-65571428D01*
X150142857Y-65523809D01*
X150047619Y-65476190D01*
X149857142Y-65428571D01*
X149761904Y-65380952D01*
X149714285Y-65333333D01*
X149666666Y-65238095D01*
X149666666Y-65142857D01*
X149714285Y-65047619D01*
X149761904Y-65000000D01*
X149857142Y-64952380D01*
X150095238Y-64952380D01*
X150238095Y-65000000D01*
X150571428Y-64952380D02*
X150809523Y-65952380D01*
X151000000Y-65238095D01*
X151190476Y-65952380D01*
X151428571Y-64952380D01*
X152238095Y-64952380D02*
X152047619Y-64952380D01*
X151952380Y-65000000D01*
X151904761Y-65047619D01*
X151809523Y-65190476D01*
X151761904Y-65380952D01*
X151761904Y-65761904D01*
X151809523Y-65857142D01*
X151857142Y-65904761D01*
X151952380Y-65952380D01*
X152142857Y-65952380D01*
X152238095Y-65904761D01*
X152285714Y-65857142D01*
X152333333Y-65761904D01*
X152333333Y-65523809D01*
X152285714Y-65428571D01*
X152238095Y-65380952D01*
X152142857Y-65333333D01*
X151952380Y-65333333D01*
X151857142Y-65380952D01*
X151809523Y-65428571D01*
X151761904Y-65523809D01*
X149261904Y-53904761D02*
X149404761Y-53952380D01*
X149642857Y-53952380D01*
X149738095Y-53904761D01*
X149785714Y-53857142D01*
X149833333Y-53761904D01*
X149833333Y-53666666D01*
X149785714Y-53571428D01*
X149738095Y-53523809D01*
X149642857Y-53476190D01*
X149452380Y-53428571D01*
X149357142Y-53380952D01*
X149309523Y-53333333D01*
X149261904Y-53238095D01*
X149261904Y-53142857D01*
X149309523Y-53047619D01*
X149357142Y-53000000D01*
X149452380Y-52952380D01*
X149690476Y-52952380D01*
X149833333Y-53000000D01*
X150261904Y-53952380D02*
X150261904Y-52952380D01*
X150642857Y-52952380D01*
X150738095Y-53000000D01*
X150785714Y-53047619D01*
X150833333Y-53142857D01*
X150833333Y-53285714D01*
X150785714Y-53380952D01*
X150738095Y-53428571D01*
X150642857Y-53476190D01*
X150261904Y-53476190D01*
X151261904Y-53428571D02*
X151595238Y-53428571D01*
X151738095Y-53952380D02*
X151261904Y-53952380D01*
X151261904Y-52952380D01*
X151738095Y-52952380D01*
X152738095Y-53857142D02*
X152690476Y-53904761D01*
X152547619Y-53952380D01*
X152452380Y-53952380D01*
X152309523Y-53904761D01*
X152214285Y-53809523D01*
X152166666Y-53714285D01*
X152119047Y-53523809D01*
X152119047Y-53380952D01*
X152166666Y-53190476D01*
X152214285Y-53095238D01*
X152309523Y-53000000D01*
X152452380Y-52952380D01*
X152547619Y-52952380D01*
X152690476Y-53000000D01*
X152738095Y-53047619D01*
X53890476Y-49404761D02*
X54033333Y-49452380D01*
X54271428Y-49452380D01*
X54366666Y-49404761D01*
X54414285Y-49357142D01*
X54461904Y-49261904D01*
X54461904Y-49166666D01*
X54414285Y-49071428D01*
X54366666Y-49023809D01*
X54271428Y-48976190D01*
X54080952Y-48928571D01*
X53985714Y-48880952D01*
X53938095Y-48833333D01*
X53890476Y-48738095D01*
X53890476Y-48642857D01*
X53938095Y-48547619D01*
X53985714Y-48500000D01*
X54080952Y-48452380D01*
X54319047Y-48452380D01*
X54461904Y-48500000D01*
X54795238Y-48452380D02*
X55033333Y-49452380D01*
X55223809Y-48738095D01*
X55414285Y-49452380D01*
X55652380Y-48452380D01*
X56557142Y-49452380D02*
X55985714Y-49452380D01*
X56271428Y-49452380D02*
X56271428Y-48452380D01*
X56176190Y-48595238D01*
X56080952Y-48690476D01*
X55985714Y-48738095D01*
X57509523Y-49452380D02*
X56938095Y-49452380D01*
X57223809Y-49452380D02*
X57223809Y-48452380D01*
X57128571Y-48595238D01*
X57033333Y-48690476D01*
X56938095Y-48738095D01*
X55890476Y-36452380D02*
X55700000Y-36452380D01*
X55604761Y-36500000D01*
X55557142Y-36547619D01*
X55461904Y-36690476D01*
X55414285Y-36880952D01*
X55414285Y-37261904D01*
X55461904Y-37357142D01*
X55509523Y-37404761D01*
X55604761Y-37452380D01*
X55795238Y-37452380D01*
X55890476Y-37404761D01*
X55938095Y-37357142D01*
X55985714Y-37261904D01*
X55985714Y-37023809D01*
X55938095Y-36928571D01*
X55890476Y-36880952D01*
X55795238Y-36833333D01*
X55604761Y-36833333D01*
X55509523Y-36880952D01*
X55461904Y-36928571D01*
X55414285Y-37023809D01*
X121166666Y-65904761D02*
X121309523Y-65952380D01*
X121547619Y-65952380D01*
X121642857Y-65904761D01*
X121690476Y-65857142D01*
X121738095Y-65761904D01*
X121738095Y-65666666D01*
X121690476Y-65571428D01*
X121642857Y-65523809D01*
X121547619Y-65476190D01*
X121357142Y-65428571D01*
X121261904Y-65380952D01*
X121214285Y-65333333D01*
X121166666Y-65238095D01*
X121166666Y-65142857D01*
X121214285Y-65047619D01*
X121261904Y-65000000D01*
X121357142Y-64952380D01*
X121595238Y-64952380D01*
X121738095Y-65000000D01*
X122071428Y-64952380D02*
X122309523Y-65952380D01*
X122500000Y-65238095D01*
X122690476Y-65952380D01*
X122928571Y-64952380D01*
X123785714Y-64952380D02*
X123309523Y-64952380D01*
X123261904Y-65428571D01*
X123309523Y-65380952D01*
X123404761Y-65333333D01*
X123642857Y-65333333D01*
X123738095Y-65380952D01*
X123785714Y-65428571D01*
X123833333Y-65523809D01*
X123833333Y-65761904D01*
X123785714Y-65857142D01*
X123738095Y-65904761D01*
X123642857Y-65952380D01*
X123404761Y-65952380D01*
X123309523Y-65904761D01*
X123261904Y-65857142D01*
X121809523Y-53952380D02*
X121809523Y-52952380D01*
X121809523Y-53428571D02*
X122380952Y-53428571D01*
X122380952Y-53952380D02*
X122380952Y-52952380D01*
X122761904Y-53285714D02*
X123285714Y-53285714D01*
X122761904Y-53952380D01*
X123285714Y-53952380D01*
X15890476Y-32904761D02*
X16033333Y-32952380D01*
X16271428Y-32952380D01*
X16366666Y-32904761D01*
X16414285Y-32857142D01*
X16461904Y-32761904D01*
X16461904Y-32666666D01*
X16414285Y-32571428D01*
X16366666Y-32523809D01*
X16271428Y-32476190D01*
X16080952Y-32428571D01*
X15985714Y-32380952D01*
X15938095Y-32333333D01*
X15890476Y-32238095D01*
X15890476Y-32142857D01*
X15938095Y-32047619D01*
X15985714Y-32000000D01*
X16080952Y-31952380D01*
X16319047Y-31952380D01*
X16461904Y-32000000D01*
X16795238Y-31952380D02*
X17033333Y-32952380D01*
X17223809Y-32238095D01*
X17414285Y-32952380D01*
X17652380Y-31952380D01*
X18557142Y-32952380D02*
X17985714Y-32952380D01*
X18271428Y-32952380D02*
X18271428Y-31952380D01*
X18176190Y-32095238D01*
X18080952Y-32190476D01*
X17985714Y-32238095D01*
X18890476Y-31952380D02*
X19557142Y-31952380D01*
X19128571Y-32952380D01*
X17366666Y-19952380D02*
X18033333Y-19952380D01*
X17604761Y-20952380D01*
X91890476Y-15404761D02*
X92033333Y-15452380D01*
X92271428Y-15452380D01*
X92366666Y-15404761D01*
X92414285Y-15357142D01*
X92461904Y-15261904D01*
X92461904Y-15166666D01*
X92414285Y-15071428D01*
X92366666Y-15023809D01*
X92271428Y-14976190D01*
X92080952Y-14928571D01*
X91985714Y-14880952D01*
X91938095Y-14833333D01*
X91890476Y-14738095D01*
X91890476Y-14642857D01*
X91938095Y-14547619D01*
X91985714Y-14500000D01*
X92080952Y-14452380D01*
X92319047Y-14452380D01*
X92461904Y-14500000D01*
X92795238Y-14452380D02*
X93033333Y-15452380D01*
X93223809Y-14738095D01*
X93414285Y-15452380D01*
X93652380Y-14452380D01*
X94557142Y-15452380D02*
X93985714Y-15452380D01*
X94271428Y-15452380D02*
X94271428Y-14452380D01*
X94176190Y-14595238D01*
X94080952Y-14690476D01*
X93985714Y-14738095D01*
X94890476Y-14452380D02*
X95509523Y-14452380D01*
X95176190Y-14833333D01*
X95319047Y-14833333D01*
X95414285Y-14880952D01*
X95461904Y-14928571D01*
X95509523Y-15023809D01*
X95509523Y-15261904D01*
X95461904Y-15357142D01*
X95414285Y-15404761D01*
X95319047Y-15452380D01*
X95033333Y-15452380D01*
X94938095Y-15404761D01*
X94890476Y-15357142D01*
X91866666Y-2468571D02*
X92009523Y-2516190D01*
X92057142Y-2563809D01*
X92104761Y-2659047D01*
X92104761Y-2801904D01*
X92057142Y-2897142D01*
X92009523Y-2944761D01*
X91914285Y-2992380D01*
X91533333Y-2992380D01*
X91533333Y-1992380D01*
X91866666Y-1992380D01*
X91961904Y-2040000D01*
X92009523Y-2087619D01*
X92057142Y-2182857D01*
X92057142Y-2278095D01*
X92009523Y-2373333D01*
X91961904Y-2420952D01*
X91866666Y-2468571D01*
X91533333Y-2468571D01*
X92723809Y-1992380D02*
X92914285Y-1992380D01*
X93009523Y-2040000D01*
X93104761Y-2135238D01*
X93152380Y-2325714D01*
X93152380Y-2659047D01*
X93104761Y-2849523D01*
X93009523Y-2944761D01*
X92914285Y-2992380D01*
X92723809Y-2992380D01*
X92628571Y-2944761D01*
X92533333Y-2849523D01*
X92485714Y-2659047D01*
X92485714Y-2325714D01*
X92533333Y-2135238D01*
X92628571Y-2040000D01*
X92723809Y-1992380D01*
X93771428Y-1992380D02*
X93961904Y-1992380D01*
X94057142Y-2040000D01*
X94152380Y-2135238D01*
X94200000Y-2325714D01*
X94200000Y-2659047D01*
X94152380Y-2849523D01*
X94057142Y-2944761D01*
X93961904Y-2992380D01*
X93771428Y-2992380D01*
X93676190Y-2944761D01*
X93580952Y-2849523D01*
X93533333Y-2659047D01*
X93533333Y-2325714D01*
X93580952Y-2135238D01*
X93676190Y-2040000D01*
X93771428Y-1992380D01*
X94580952Y-2944761D02*
X94723809Y-2992380D01*
X94961904Y-2992380D01*
X95057142Y-2944761D01*
X95104761Y-2897142D01*
X95152380Y-2801904D01*
X95152380Y-2706666D01*
X95104761Y-2611428D01*
X95057142Y-2563809D01*
X94961904Y-2516190D01*
X94771428Y-2468571D01*
X94676190Y-2420952D01*
X94628571Y-2373333D01*
X94580952Y-2278095D01*
X94580952Y-2182857D01*
X94628571Y-2087619D01*
X94676190Y-2040000D01*
X94771428Y-1992380D01*
X95009523Y-1992380D01*
X95152380Y-2040000D01*
X95438095Y-1992380D02*
X96009523Y-1992380D01*
X95723809Y-2992380D02*
X95723809Y-1992380D01*
X149190476Y-32904761D02*
X149333333Y-32952380D01*
X149571428Y-32952380D01*
X149666666Y-32904761D01*
X149714285Y-32857142D01*
X149761904Y-32761904D01*
X149761904Y-32666666D01*
X149714285Y-32571428D01*
X149666666Y-32523809D01*
X149571428Y-32476190D01*
X149380952Y-32428571D01*
X149285714Y-32380952D01*
X149238095Y-32333333D01*
X149190476Y-32238095D01*
X149190476Y-32142857D01*
X149238095Y-32047619D01*
X149285714Y-32000000D01*
X149380952Y-31952380D01*
X149619047Y-31952380D01*
X149761904Y-32000000D01*
X150095238Y-31952380D02*
X150333333Y-32952380D01*
X150523809Y-32238095D01*
X150714285Y-32952380D01*
X150952380Y-31952380D01*
X151857142Y-32952380D02*
X151285714Y-32952380D01*
X151571428Y-32952380D02*
X151571428Y-31952380D01*
X151476190Y-32095238D01*
X151380952Y-32190476D01*
X151285714Y-32238095D01*
X152714285Y-32285714D02*
X152714285Y-32952380D01*
X152476190Y-31904761D02*
X152238095Y-32619047D01*
X152857142Y-32619047D01*
X150857142Y-20857142D02*
X150809523Y-20904761D01*
X150666666Y-20952380D01*
X150571428Y-20952380D01*
X150428571Y-20904761D01*
X150333333Y-20809523D01*
X150285714Y-20714285D01*
X150238095Y-20523809D01*
X150238095Y-20380952D01*
X150285714Y-20190476D01*
X150333333Y-20095238D01*
X150428571Y-20000000D01*
X150571428Y-19952380D01*
X150666666Y-19952380D01*
X150809523Y-20000000D01*
X150857142Y-20047619D01*
X151285714Y-20428571D02*
X151619047Y-20428571D01*
X151761904Y-20952380D02*
X151285714Y-20952380D01*
X151285714Y-19952380D01*
X151761904Y-19952380D01*
X34890476Y-32904761D02*
X35033333Y-32952380D01*
X35271428Y-32952380D01*
X35366666Y-32904761D01*
X35414285Y-32857142D01*
X35461904Y-32761904D01*
X35461904Y-32666666D01*
X35414285Y-32571428D01*
X35366666Y-32523809D01*
X35271428Y-32476190D01*
X35080952Y-32428571D01*
X34985714Y-32380952D01*
X34938095Y-32333333D01*
X34890476Y-32238095D01*
X34890476Y-32142857D01*
X34938095Y-32047619D01*
X34985714Y-32000000D01*
X35080952Y-31952380D01*
X35319047Y-31952380D01*
X35461904Y-32000000D01*
X35795238Y-31952380D02*
X36033333Y-32952380D01*
X36223809Y-32238095D01*
X36414285Y-32952380D01*
X36652380Y-31952380D01*
X37557142Y-32952380D02*
X36985714Y-32952380D01*
X37271428Y-32952380D02*
X37271428Y-31952380D01*
X37176190Y-32095238D01*
X37080952Y-32190476D01*
X36985714Y-32238095D01*
X38128571Y-32380952D02*
X38033333Y-32333333D01*
X37985714Y-32285714D01*
X37938095Y-32190476D01*
X37938095Y-32142857D01*
X37985714Y-32047619D01*
X38033333Y-32000000D01*
X38128571Y-31952380D01*
X38319047Y-31952380D01*
X38414285Y-32000000D01*
X38461904Y-32047619D01*
X38509523Y-32142857D01*
X38509523Y-32190476D01*
X38461904Y-32285714D01*
X38414285Y-32333333D01*
X38319047Y-32380952D01*
X38128571Y-32380952D01*
X38033333Y-32428571D01*
X37985714Y-32476190D01*
X37938095Y-32571428D01*
X37938095Y-32761904D01*
X37985714Y-32857142D01*
X38033333Y-32904761D01*
X38128571Y-32952380D01*
X38319047Y-32952380D01*
X38414285Y-32904761D01*
X38461904Y-32857142D01*
X38509523Y-32761904D01*
X38509523Y-32571428D01*
X38461904Y-32476190D01*
X38414285Y-32428571D01*
X38319047Y-32380952D01*
X36604761Y-20380952D02*
X36509523Y-20333333D01*
X36461904Y-20285714D01*
X36414285Y-20190476D01*
X36414285Y-20142857D01*
X36461904Y-20047619D01*
X36509523Y-20000000D01*
X36604761Y-19952380D01*
X36795238Y-19952380D01*
X36890476Y-20000000D01*
X36938095Y-20047619D01*
X36985714Y-20142857D01*
X36985714Y-20190476D01*
X36938095Y-20285714D01*
X36890476Y-20333333D01*
X36795238Y-20380952D01*
X36604761Y-20380952D01*
X36509523Y-20428571D01*
X36461904Y-20476190D01*
X36414285Y-20571428D01*
X36414285Y-20761904D01*
X36461904Y-20857142D01*
X36509523Y-20904761D01*
X36604761Y-20952380D01*
X36795238Y-20952380D01*
X36890476Y-20904761D01*
X36938095Y-20857142D01*
X36985714Y-20761904D01*
X36985714Y-20571428D01*
X36938095Y-20476190D01*
X36890476Y-20428571D01*
X36795238Y-20380952D01*
X53890476Y-32904761D02*
X54033333Y-32952380D01*
X54271428Y-32952380D01*
X54366666Y-32904761D01*
X54414285Y-32857142D01*
X54461904Y-32761904D01*
X54461904Y-32666666D01*
X54414285Y-32571428D01*
X54366666Y-32523809D01*
X54271428Y-32476190D01*
X54080952Y-32428571D01*
X53985714Y-32380952D01*
X53938095Y-32333333D01*
X53890476Y-32238095D01*
X53890476Y-32142857D01*
X53938095Y-32047619D01*
X53985714Y-32000000D01*
X54080952Y-31952380D01*
X54319047Y-31952380D01*
X54461904Y-32000000D01*
X54795238Y-31952380D02*
X55033333Y-32952380D01*
X55223809Y-32238095D01*
X55414285Y-32952380D01*
X55652380Y-31952380D01*
X56557142Y-32952380D02*
X55985714Y-32952380D01*
X56271428Y-32952380D02*
X56271428Y-31952380D01*
X56176190Y-32095238D01*
X56080952Y-32190476D01*
X55985714Y-32238095D01*
X57033333Y-32952380D02*
X57223809Y-32952380D01*
X57319047Y-32904761D01*
X57366666Y-32857142D01*
X57461904Y-32714285D01*
X57509523Y-32523809D01*
X57509523Y-32142857D01*
X57461904Y-32047619D01*
X57414285Y-32000000D01*
X57319047Y-31952380D01*
X57128571Y-31952380D01*
X57033333Y-32000000D01*
X56985714Y-32047619D01*
X56938095Y-32142857D01*
X56938095Y-32380952D01*
X56985714Y-32476190D01*
X57033333Y-32523809D01*
X57128571Y-32571428D01*
X57319047Y-32571428D01*
X57414285Y-32523809D01*
X57461904Y-32476190D01*
X57509523Y-32380952D01*
X55509523Y-20952380D02*
X55700000Y-20952380D01*
X55795238Y-20904761D01*
X55842857Y-20857142D01*
X55938095Y-20714285D01*
X55985714Y-20523809D01*
X55985714Y-20142857D01*
X55938095Y-20047619D01*
X55890476Y-20000000D01*
X55795238Y-19952380D01*
X55604761Y-19952380D01*
X55509523Y-20000000D01*
X55461904Y-20047619D01*
X55414285Y-20142857D01*
X55414285Y-20380952D01*
X55461904Y-20476190D01*
X55509523Y-20523809D01*
X55604761Y-20571428D01*
X55795238Y-20571428D01*
X55890476Y-20523809D01*
X55938095Y-20476190D01*
X55985714Y-20380952D01*
X82690476Y-32904761D02*
X82833333Y-32952380D01*
X83071428Y-32952380D01*
X83166666Y-32904761D01*
X83214285Y-32857142D01*
X83261904Y-32761904D01*
X83261904Y-32666666D01*
X83214285Y-32571428D01*
X83166666Y-32523809D01*
X83071428Y-32476190D01*
X82880952Y-32428571D01*
X82785714Y-32380952D01*
X82738095Y-32333333D01*
X82690476Y-32238095D01*
X82690476Y-32142857D01*
X82738095Y-32047619D01*
X82785714Y-32000000D01*
X82880952Y-31952380D01*
X83119047Y-31952380D01*
X83261904Y-32000000D01*
X83595238Y-31952380D02*
X83833333Y-32952380D01*
X84023809Y-32238095D01*
X84214285Y-32952380D01*
X84452380Y-31952380D01*
X84785714Y-32047619D02*
X84833333Y-32000000D01*
X84928571Y-31952380D01*
X85166666Y-31952380D01*
X85261904Y-32000000D01*
X85309523Y-32047619D01*
X85357142Y-32142857D01*
X85357142Y-32238095D01*
X85309523Y-32380952D01*
X84738095Y-32952380D01*
X85357142Y-32952380D01*
X85976190Y-31952380D02*
X86071428Y-31952380D01*
X86166666Y-32000000D01*
X86214285Y-32047619D01*
X86261904Y-32142857D01*
X86309523Y-32333333D01*
X86309523Y-32571428D01*
X86261904Y-32761904D01*
X86214285Y-32857142D01*
X86166666Y-32904761D01*
X86071428Y-32952380D01*
X85976190Y-32952380D01*
X85880952Y-32904761D01*
X85833333Y-32857142D01*
X85785714Y-32761904D01*
X85738095Y-32571428D01*
X85738095Y-32333333D01*
X85785714Y-32142857D01*
X85833333Y-32047619D01*
X85880952Y-32000000D01*
X85976190Y-31952380D01*
X84214285Y-20285714D02*
X84214285Y-21285714D01*
X84690476Y-20809523D02*
X84738095Y-20904761D01*
X84833333Y-20952380D01*
X84214285Y-20809523D02*
X84261904Y-20904761D01*
X84357142Y-20952380D01*
X84547619Y-20952380D01*
X84642857Y-20904761D01*
X84690476Y-20809523D01*
X84690476Y-20285714D01*
X196590476Y-32904761D02*
X196733333Y-32952380D01*
X196971428Y-32952380D01*
X197066666Y-32904761D01*
X197114285Y-32857142D01*
X197161904Y-32761904D01*
X197161904Y-32666666D01*
X197114285Y-32571428D01*
X197066666Y-32523809D01*
X196971428Y-32476190D01*
X196780952Y-32428571D01*
X196685714Y-32380952D01*
X196638095Y-32333333D01*
X196590476Y-32238095D01*
X196590476Y-32142857D01*
X196638095Y-32047619D01*
X196685714Y-32000000D01*
X196780952Y-31952380D01*
X197019047Y-31952380D01*
X197161904Y-32000000D01*
X197495238Y-31952380D02*
X197733333Y-32952380D01*
X197923809Y-32238095D01*
X198114285Y-32952380D01*
X198352380Y-31952380D01*
X199257142Y-32952380D02*
X198685714Y-32952380D01*
X198971428Y-32952380D02*
X198971428Y-31952380D01*
X198876190Y-32095238D01*
X198780952Y-32190476D01*
X198685714Y-32238095D01*
X200114285Y-31952380D02*
X199923809Y-31952380D01*
X199828571Y-32000000D01*
X199780952Y-32047619D01*
X199685714Y-32190476D01*
X199638095Y-32380952D01*
X199638095Y-32761904D01*
X199685714Y-32857142D01*
X199733333Y-32904761D01*
X199828571Y-32952380D01*
X200019047Y-32952380D01*
X200114285Y-32904761D01*
X200161904Y-32857142D01*
X200209523Y-32761904D01*
X200209523Y-32523809D01*
X200161904Y-32428571D01*
X200114285Y-32380952D01*
X200019047Y-32333333D01*
X199828571Y-32333333D01*
X199733333Y-32380952D01*
X199685714Y-32428571D01*
X199638095Y-32523809D01*
X198780952Y-20571428D02*
X198019047Y-20571428D01*
X198209523Y-20761904D02*
X198019047Y-20571428D01*
X198209523Y-20380952D01*
X168190476Y-49404761D02*
X168333333Y-49452380D01*
X168571428Y-49452380D01*
X168666666Y-49404761D01*
X168714285Y-49357142D01*
X168761904Y-49261904D01*
X168761904Y-49166666D01*
X168714285Y-49071428D01*
X168666666Y-49023809D01*
X168571428Y-48976190D01*
X168380952Y-48928571D01*
X168285714Y-48880952D01*
X168238095Y-48833333D01*
X168190476Y-48738095D01*
X168190476Y-48642857D01*
X168238095Y-48547619D01*
X168285714Y-48500000D01*
X168380952Y-48452380D01*
X168619047Y-48452380D01*
X168761904Y-48500000D01*
X169095238Y-48452380D02*
X169333333Y-49452380D01*
X169523809Y-48738095D01*
X169714285Y-49452380D01*
X169952380Y-48452380D01*
X170857142Y-49452380D02*
X170285714Y-49452380D01*
X170571428Y-49452380D02*
X170571428Y-48452380D01*
X170476190Y-48595238D01*
X170380952Y-48690476D01*
X170285714Y-48738095D01*
X171761904Y-48452380D02*
X171285714Y-48452380D01*
X171238095Y-48928571D01*
X171285714Y-48880952D01*
X171380952Y-48833333D01*
X171619047Y-48833333D01*
X171714285Y-48880952D01*
X171761904Y-48928571D01*
X171809523Y-49023809D01*
X171809523Y-49261904D01*
X171761904Y-49357142D01*
X171714285Y-49404761D01*
X171619047Y-49452380D01*
X171380952Y-49452380D01*
X171285714Y-49404761D01*
X171238095Y-49357142D01*
X167928571Y-37404761D02*
X168071428Y-37452380D01*
X168309523Y-37452380D01*
X168404761Y-37404761D01*
X168452380Y-37357142D01*
X168500000Y-37261904D01*
X168500000Y-37166666D01*
X168452380Y-37071428D01*
X168404761Y-37023809D01*
X168309523Y-36976190D01*
X168119047Y-36928571D01*
X168023809Y-36880952D01*
X167976190Y-36833333D01*
X167928571Y-36738095D01*
X167928571Y-36642857D01*
X167976190Y-36547619D01*
X168023809Y-36500000D01*
X168119047Y-36452380D01*
X168357142Y-36452380D01*
X168500000Y-36500000D01*
X169500000Y-37357142D02*
X169452380Y-37404761D01*
X169309523Y-37452380D01*
X169214285Y-37452380D01*
X169071428Y-37404761D01*
X168976190Y-37309523D01*
X168928571Y-37214285D01*
X168880952Y-37023809D01*
X168880952Y-36880952D01*
X168928571Y-36690476D01*
X168976190Y-36595238D01*
X169071428Y-36500000D01*
X169214285Y-36452380D01*
X169309523Y-36452380D01*
X169452380Y-36500000D01*
X169500000Y-36547619D01*
X169880952Y-37166666D02*
X170357142Y-37166666D01*
X169785714Y-37452380D02*
X170119047Y-36452380D01*
X170452380Y-37452380D01*
X171261904Y-37452380D02*
X170785714Y-37452380D01*
X170785714Y-36452380D01*
X171595238Y-36928571D02*
X171928571Y-36928571D01*
X172071428Y-37452380D02*
X171595238Y-37452380D01*
X171595238Y-36452380D01*
X172071428Y-36452380D01*
X116190476Y-15204761D02*
X116333333Y-15252380D01*
X116571428Y-15252380D01*
X116666666Y-15204761D01*
X116714285Y-15157142D01*
X116761904Y-15061904D01*
X116761904Y-14966666D01*
X116714285Y-14871428D01*
X116666666Y-14823809D01*
X116571428Y-14776190D01*
X116380952Y-14728571D01*
X116285714Y-14680952D01*
X116238095Y-14633333D01*
X116190476Y-14538095D01*
X116190476Y-14442857D01*
X116238095Y-14347619D01*
X116285714Y-14300000D01*
X116380952Y-14252380D01*
X116619047Y-14252380D01*
X116761904Y-14300000D01*
X117095238Y-14252380D02*
X117333333Y-15252380D01*
X117523809Y-14538095D01*
X117714285Y-15252380D01*
X117952380Y-14252380D01*
X118285714Y-14347619D02*
X118333333Y-14300000D01*
X118428571Y-14252380D01*
X118666666Y-14252380D01*
X118761904Y-14300000D01*
X118809523Y-14347619D01*
X118857142Y-14442857D01*
X118857142Y-14538095D01*
X118809523Y-14680952D01*
X118238095Y-15252380D01*
X118857142Y-15252380D01*
X119809523Y-15252380D02*
X119238095Y-15252380D01*
X119523809Y-15252380D02*
X119523809Y-14252380D01*
X119428571Y-14395238D01*
X119333333Y-14490476D01*
X119238095Y-14538095D01*
X113904761Y-3252380D02*
X113904761Y-2252380D01*
X114285714Y-2252380D01*
X114380952Y-2300000D01*
X114428571Y-2347619D01*
X114476190Y-2442857D01*
X114476190Y-2585714D01*
X114428571Y-2680952D01*
X114380952Y-2728571D01*
X114285714Y-2776190D01*
X113904761Y-2776190D01*
X115476190Y-3252380D02*
X115142857Y-2776190D01*
X114904761Y-3252380D02*
X114904761Y-2252380D01*
X115285714Y-2252380D01*
X115380952Y-2300000D01*
X115428571Y-2347619D01*
X115476190Y-2442857D01*
X115476190Y-2585714D01*
X115428571Y-2680952D01*
X115380952Y-2728571D01*
X115285714Y-2776190D01*
X114904761Y-2776190D01*
X115904761Y-2728571D02*
X116238095Y-2728571D01*
X116380952Y-3252380D02*
X115904761Y-3252380D01*
X115904761Y-2252380D01*
X116380952Y-2252380D01*
X116666666Y-2252380D02*
X117000000Y-3252380D01*
X117333333Y-2252380D01*
X118428571Y-3252380D02*
X118428571Y-2252380D01*
X118761904Y-2966666D01*
X119095238Y-2252380D01*
X119095238Y-3252380D01*
X119571428Y-2728571D02*
X119904761Y-2728571D01*
X120047619Y-3252380D02*
X119571428Y-3252380D01*
X119571428Y-2252380D01*
X120047619Y-2252380D01*
X120476190Y-3252380D02*
X120476190Y-2252380D01*
X121047619Y-3252380D01*
X121047619Y-2252380D01*
X121523809Y-2252380D02*
X121523809Y-3061904D01*
X121571428Y-3157142D01*
X121619047Y-3204761D01*
X121714285Y-3252380D01*
X121904761Y-3252380D01*
X122000000Y-3204761D01*
X122047619Y-3157142D01*
X122095238Y-3061904D01*
X122095238Y-2252380D01*
X142190476Y-15204761D02*
X142333333Y-15252380D01*
X142571428Y-15252380D01*
X142666666Y-15204761D01*
X142714285Y-15157142D01*
X142761904Y-15061904D01*
X142761904Y-14966666D01*
X142714285Y-14871428D01*
X142666666Y-14823809D01*
X142571428Y-14776190D01*
X142380952Y-14728571D01*
X142285714Y-14680952D01*
X142238095Y-14633333D01*
X142190476Y-14538095D01*
X142190476Y-14442857D01*
X142238095Y-14347619D01*
X142285714Y-14300000D01*
X142380952Y-14252380D01*
X142619047Y-14252380D01*
X142761904Y-14300000D01*
X143095238Y-14252380D02*
X143333333Y-15252380D01*
X143523809Y-14538095D01*
X143714285Y-15252380D01*
X143952380Y-14252380D01*
X144285714Y-14347619D02*
X144333333Y-14300000D01*
X144428571Y-14252380D01*
X144666666Y-14252380D01*
X144761904Y-14300000D01*
X144809523Y-14347619D01*
X144857142Y-14442857D01*
X144857142Y-14538095D01*
X144809523Y-14680952D01*
X144238095Y-15252380D01*
X144857142Y-15252380D01*
X145238095Y-14347619D02*
X145285714Y-14300000D01*
X145380952Y-14252380D01*
X145619047Y-14252380D01*
X145714285Y-14300000D01*
X145761904Y-14347619D01*
X145809523Y-14442857D01*
X145809523Y-14538095D01*
X145761904Y-14680952D01*
X145190476Y-15252380D01*
X145809523Y-15252380D01*
X141523809Y-3204761D02*
X141666666Y-3252380D01*
X141904761Y-3252380D01*
X142000000Y-3204761D01*
X142047619Y-3157142D01*
X142095238Y-3061904D01*
X142095238Y-2966666D01*
X142047619Y-2871428D01*
X142000000Y-2823809D01*
X141904761Y-2776190D01*
X141714285Y-2728571D01*
X141619047Y-2680952D01*
X141571428Y-2633333D01*
X141523809Y-2538095D01*
X141523809Y-2442857D01*
X141571428Y-2347619D01*
X141619047Y-2300000D01*
X141714285Y-2252380D01*
X141952380Y-2252380D01*
X142095238Y-2300000D01*
X142714285Y-2252380D02*
X142904761Y-2252380D01*
X143000000Y-2300000D01*
X143095238Y-2395238D01*
X143142857Y-2585714D01*
X143142857Y-2919047D01*
X143095238Y-3109523D01*
X143000000Y-3204761D01*
X142904761Y-3252380D01*
X142714285Y-3252380D01*
X142619047Y-3204761D01*
X142523809Y-3109523D01*
X142476190Y-2919047D01*
X142476190Y-2585714D01*
X142523809Y-2395238D01*
X142619047Y-2300000D01*
X142714285Y-2252380D01*
X143904761Y-2728571D02*
X143571428Y-2728571D01*
X143571428Y-3252380D02*
X143571428Y-2252380D01*
X144047619Y-2252380D01*
X144285714Y-2252380D02*
X144857142Y-2252380D01*
X144571428Y-3252380D02*
X144571428Y-2252380D01*
X146476190Y-3252380D02*
X145904761Y-3252380D01*
X146190476Y-3252380D02*
X146190476Y-2252380D01*
X146095238Y-2395238D01*
X146000000Y-2490476D01*
X145904761Y-2538095D01*
X72890476Y-15404761D02*
X73033333Y-15452380D01*
X73271428Y-15452380D01*
X73366666Y-15404761D01*
X73414285Y-15357142D01*
X73461904Y-15261904D01*
X73461904Y-15166666D01*
X73414285Y-15071428D01*
X73366666Y-15023809D01*
X73271428Y-14976190D01*
X73080952Y-14928571D01*
X72985714Y-14880952D01*
X72938095Y-14833333D01*
X72890476Y-14738095D01*
X72890476Y-14642857D01*
X72938095Y-14547619D01*
X72985714Y-14500000D01*
X73080952Y-14452380D01*
X73319047Y-14452380D01*
X73461904Y-14500000D01*
X73795238Y-14452380D02*
X74033333Y-15452380D01*
X74223809Y-14738095D01*
X74414285Y-15452380D01*
X74652380Y-14452380D01*
X74985714Y-14547619D02*
X75033333Y-14500000D01*
X75128571Y-14452380D01*
X75366666Y-14452380D01*
X75461904Y-14500000D01*
X75509523Y-14547619D01*
X75557142Y-14642857D01*
X75557142Y-14738095D01*
X75509523Y-14880952D01*
X74938095Y-15452380D01*
X75557142Y-15452380D01*
X76128571Y-14880952D02*
X76033333Y-14833333D01*
X75985714Y-14785714D01*
X75938095Y-14690476D01*
X75938095Y-14642857D01*
X75985714Y-14547619D01*
X76033333Y-14500000D01*
X76128571Y-14452380D01*
X76319047Y-14452380D01*
X76414285Y-14500000D01*
X76461904Y-14547619D01*
X76509523Y-14642857D01*
X76509523Y-14690476D01*
X76461904Y-14785714D01*
X76414285Y-14833333D01*
X76319047Y-14880952D01*
X76128571Y-14880952D01*
X76033333Y-14928571D01*
X75985714Y-14976190D01*
X75938095Y-15071428D01*
X75938095Y-15261904D01*
X75985714Y-15357142D01*
X76033333Y-15404761D01*
X76128571Y-15452380D01*
X76319047Y-15452380D01*
X76414285Y-15404761D01*
X76461904Y-15357142D01*
X76509523Y-15261904D01*
X76509523Y-15071428D01*
X76461904Y-14976190D01*
X76414285Y-14928571D01*
X76319047Y-14880952D01*
X71938095Y-1992380D02*
X72176190Y-2992380D01*
X72366666Y-2278095D01*
X72557142Y-2992380D01*
X72795238Y-1992380D01*
X74271428Y-2468571D02*
X74414285Y-2516190D01*
X74461904Y-2563809D01*
X74509523Y-2659047D01*
X74509523Y-2801904D01*
X74461904Y-2897142D01*
X74414285Y-2944761D01*
X74319047Y-2992380D01*
X73938095Y-2992380D01*
X73938095Y-1992380D01*
X74271428Y-1992380D01*
X74366666Y-2040000D01*
X74414285Y-2087619D01*
X74461904Y-2182857D01*
X74461904Y-2278095D01*
X74414285Y-2373333D01*
X74366666Y-2420952D01*
X74271428Y-2468571D01*
X73938095Y-2468571D01*
X74890476Y-2706666D02*
X75366666Y-2706666D01*
X74795238Y-2992380D02*
X75128571Y-1992380D01*
X75461904Y-2992380D01*
X75795238Y-2992380D02*
X75795238Y-1992380D01*
X76366666Y-2992380D01*
X76366666Y-1992380D01*
X76842857Y-2992380D02*
X76842857Y-1992380D01*
X77080952Y-1992380D01*
X77223809Y-2040000D01*
X77319047Y-2135238D01*
X77366666Y-2230476D01*
X77414285Y-2420952D01*
X77414285Y-2563809D01*
X77366666Y-2754285D01*
X77319047Y-2849523D01*
X77223809Y-2944761D01*
X77080952Y-2992380D01*
X76842857Y-2992380D01*
X120690476Y-32904761D02*
X120833333Y-32952380D01*
X121071428Y-32952380D01*
X121166666Y-32904761D01*
X121214285Y-32857142D01*
X121261904Y-32761904D01*
X121261904Y-32666666D01*
X121214285Y-32571428D01*
X121166666Y-32523809D01*
X121071428Y-32476190D01*
X120880952Y-32428571D01*
X120785714Y-32380952D01*
X120738095Y-32333333D01*
X120690476Y-32238095D01*
X120690476Y-32142857D01*
X120738095Y-32047619D01*
X120785714Y-32000000D01*
X120880952Y-31952380D01*
X121119047Y-31952380D01*
X121261904Y-32000000D01*
X121595238Y-31952380D02*
X121833333Y-32952380D01*
X122023809Y-32238095D01*
X122214285Y-32952380D01*
X122452380Y-31952380D01*
X122785714Y-32047619D02*
X122833333Y-32000000D01*
X122928571Y-31952380D01*
X123166666Y-31952380D01*
X123261904Y-32000000D01*
X123309523Y-32047619D01*
X123357142Y-32142857D01*
X123357142Y-32238095D01*
X123309523Y-32380952D01*
X122738095Y-32952380D01*
X123357142Y-32952380D01*
X123833333Y-32952380D02*
X124023809Y-32952380D01*
X124119047Y-32904761D01*
X124166666Y-32857142D01*
X124261904Y-32714285D01*
X124309523Y-32523809D01*
X124309523Y-32142857D01*
X124261904Y-32047619D01*
X124214285Y-32000000D01*
X124119047Y-31952380D01*
X123928571Y-31952380D01*
X123833333Y-32000000D01*
X123785714Y-32047619D01*
X123738095Y-32142857D01*
X123738095Y-32380952D01*
X123785714Y-32476190D01*
X123833333Y-32523809D01*
X123928571Y-32571428D01*
X124119047Y-32571428D01*
X124214285Y-32523809D01*
X124261904Y-32476190D01*
X124309523Y-32380952D01*
X119428571Y-20952380D02*
X119428571Y-19952380D01*
X120000000Y-20952380D01*
X120000000Y-19952380D01*
X120476190Y-20428571D02*
X120809523Y-20428571D01*
X120952380Y-20952380D02*
X120476190Y-20952380D01*
X120476190Y-19952380D01*
X120952380Y-19952380D01*
X121285714Y-19952380D02*
X121523809Y-20952380D01*
X121714285Y-20238095D01*
X121904761Y-20952380D01*
X122142857Y-19952380D01*
X123857142Y-20952380D02*
X123523809Y-20476190D01*
X123285714Y-20952380D02*
X123285714Y-19952380D01*
X123666666Y-19952380D01*
X123761904Y-20000000D01*
X123809523Y-20047619D01*
X123857142Y-20142857D01*
X123857142Y-20285714D01*
X123809523Y-20380952D01*
X123761904Y-20428571D01*
X123666666Y-20476190D01*
X123285714Y-20476190D01*
X124285714Y-20428571D02*
X124619047Y-20428571D01*
X124761904Y-20952380D02*
X124285714Y-20952380D01*
X124285714Y-19952380D01*
X124761904Y-19952380D01*
X125523809Y-20428571D02*
X125190476Y-20428571D01*
X125190476Y-20952380D02*
X125190476Y-19952380D01*
X125666666Y-19952380D01*
X149190476Y-49404761D02*
X149333333Y-49452380D01*
X149571428Y-49452380D01*
X149666666Y-49404761D01*
X149714285Y-49357142D01*
X149761904Y-49261904D01*
X149761904Y-49166666D01*
X149714285Y-49071428D01*
X149666666Y-49023809D01*
X149571428Y-48976190D01*
X149380952Y-48928571D01*
X149285714Y-48880952D01*
X149238095Y-48833333D01*
X149190476Y-48738095D01*
X149190476Y-48642857D01*
X149238095Y-48547619D01*
X149285714Y-48500000D01*
X149380952Y-48452380D01*
X149619047Y-48452380D01*
X149761904Y-48500000D01*
X150095238Y-48452380D02*
X150333333Y-49452380D01*
X150523809Y-48738095D01*
X150714285Y-49452380D01*
X150952380Y-48452380D01*
X151238095Y-48452380D02*
X151857142Y-48452380D01*
X151523809Y-48833333D01*
X151666666Y-48833333D01*
X151761904Y-48880952D01*
X151809523Y-48928571D01*
X151857142Y-49023809D01*
X151857142Y-49261904D01*
X151809523Y-49357142D01*
X151761904Y-49404761D01*
X151666666Y-49452380D01*
X151380952Y-49452380D01*
X151285714Y-49404761D01*
X151238095Y-49357142D01*
X152476190Y-48452380D02*
X152571428Y-48452380D01*
X152666666Y-48500000D01*
X152714285Y-48547619D01*
X152761904Y-48642857D01*
X152809523Y-48833333D01*
X152809523Y-49071428D01*
X152761904Y-49261904D01*
X152714285Y-49357142D01*
X152666666Y-49404761D01*
X152571428Y-49452380D01*
X152476190Y-49452380D01*
X152380952Y-49404761D01*
X152333333Y-49357142D01*
X152285714Y-49261904D01*
X152238095Y-49071428D01*
X152238095Y-48833333D01*
X152285714Y-48642857D01*
X152333333Y-48547619D01*
X152380952Y-48500000D01*
X152476190Y-48452380D01*
X148738095Y-36452380D02*
X148928571Y-36452380D01*
X149023809Y-36500000D01*
X149119047Y-36595238D01*
X149166666Y-36785714D01*
X149166666Y-37119047D01*
X149119047Y-37309523D01*
X149023809Y-37404761D01*
X148928571Y-37452380D01*
X148738095Y-37452380D01*
X148642857Y-37404761D01*
X148547619Y-37309523D01*
X148500000Y-37119047D01*
X148500000Y-36785714D01*
X148547619Y-36595238D01*
X148642857Y-36500000D01*
X148738095Y-36452380D01*
X149928571Y-36928571D02*
X149595238Y-36928571D01*
X149595238Y-37452380D02*
X149595238Y-36452380D01*
X150071428Y-36452380D01*
X150785714Y-36928571D02*
X150452380Y-36928571D01*
X150452380Y-37452380D02*
X150452380Y-36452380D01*
X150928571Y-36452380D01*
X151261904Y-37404761D02*
X151404761Y-37452380D01*
X151642857Y-37452380D01*
X151738095Y-37404761D01*
X151785714Y-37357142D01*
X151833333Y-37261904D01*
X151833333Y-37166666D01*
X151785714Y-37071428D01*
X151738095Y-37023809D01*
X151642857Y-36976190D01*
X151452380Y-36928571D01*
X151357142Y-36880952D01*
X151309523Y-36833333D01*
X151261904Y-36738095D01*
X151261904Y-36642857D01*
X151309523Y-36547619D01*
X151357142Y-36500000D01*
X151452380Y-36452380D01*
X151690476Y-36452380D01*
X151833333Y-36500000D01*
X152261904Y-36928571D02*
X152595238Y-36928571D01*
X152738095Y-37452380D02*
X152261904Y-37452380D01*
X152261904Y-36452380D01*
X152738095Y-36452380D01*
X153023809Y-36452380D02*
X153595238Y-36452380D01*
X153309523Y-37452380D02*
X153309523Y-36452380D01*
X53890476Y-15404761D02*
X54033333Y-15452380D01*
X54271428Y-15452380D01*
X54366666Y-15404761D01*
X54414285Y-15357142D01*
X54461904Y-15261904D01*
X54461904Y-15166666D01*
X54414285Y-15071428D01*
X54366666Y-15023809D01*
X54271428Y-14976190D01*
X54080952Y-14928571D01*
X53985714Y-14880952D01*
X53938095Y-14833333D01*
X53890476Y-14738095D01*
X53890476Y-14642857D01*
X53938095Y-14547619D01*
X53985714Y-14500000D01*
X54080952Y-14452380D01*
X54319047Y-14452380D01*
X54461904Y-14500000D01*
X54795238Y-14452380D02*
X55033333Y-15452380D01*
X55223809Y-14738095D01*
X55414285Y-15452380D01*
X55652380Y-14452380D01*
X55985714Y-14547619D02*
X56033333Y-14500000D01*
X56128571Y-14452380D01*
X56366666Y-14452380D01*
X56461904Y-14500000D01*
X56509523Y-14547619D01*
X56557142Y-14642857D01*
X56557142Y-14738095D01*
X56509523Y-14880952D01*
X55938095Y-15452380D01*
X56557142Y-15452380D01*
X56890476Y-14452380D02*
X57557142Y-14452380D01*
X57128571Y-15452380D01*
X53128571Y-2468571D02*
X53461904Y-2468571D01*
X53604761Y-2992380D02*
X53128571Y-2992380D01*
X53128571Y-1992380D01*
X53604761Y-1992380D01*
X53938095Y-1992380D02*
X54604761Y-2992380D01*
X54604761Y-1992380D02*
X53938095Y-2992380D01*
X56271428Y-2040000D02*
X56176190Y-1992380D01*
X56033333Y-1992380D01*
X55890476Y-2040000D01*
X55795238Y-2135238D01*
X55747619Y-2230476D01*
X55700000Y-2420952D01*
X55700000Y-2563809D01*
X55747619Y-2754285D01*
X55795238Y-2849523D01*
X55890476Y-2944761D01*
X56033333Y-2992380D01*
X56128571Y-2992380D01*
X56271428Y-2944761D01*
X56319047Y-2897142D01*
X56319047Y-2563809D01*
X56128571Y-2563809D01*
X57319047Y-2992380D02*
X56985714Y-2516190D01*
X56747619Y-2992380D02*
X56747619Y-1992380D01*
X57128571Y-1992380D01*
X57223809Y-2040000D01*
X57271428Y-2087619D01*
X57319047Y-2182857D01*
X57319047Y-2325714D01*
X57271428Y-2420952D01*
X57223809Y-2468571D01*
X57128571Y-2516190D01*
X56747619Y-2516190D01*
X57747619Y-2992380D02*
X57747619Y-1992380D01*
X57985714Y-1992380D01*
X58128571Y-2040000D01*
X58223809Y-2135238D01*
X58271428Y-2230476D01*
X58319047Y-2420952D01*
X58319047Y-2563809D01*
X58271428Y-2754285D01*
X58223809Y-2849523D01*
X58128571Y-2944761D01*
X57985714Y-2992380D01*
X57747619Y-2992380D01*
X168190476Y-32904761D02*
X168333333Y-32952380D01*
X168571428Y-32952380D01*
X168666666Y-32904761D01*
X168714285Y-32857142D01*
X168761904Y-32761904D01*
X168761904Y-32666666D01*
X168714285Y-32571428D01*
X168666666Y-32523809D01*
X168571428Y-32476190D01*
X168380952Y-32428571D01*
X168285714Y-32380952D01*
X168238095Y-32333333D01*
X168190476Y-32238095D01*
X168190476Y-32142857D01*
X168238095Y-32047619D01*
X168285714Y-32000000D01*
X168380952Y-31952380D01*
X168619047Y-31952380D01*
X168761904Y-32000000D01*
X169095238Y-31952380D02*
X169333333Y-32952380D01*
X169523809Y-32238095D01*
X169714285Y-32952380D01*
X169952380Y-31952380D01*
X170285714Y-32047619D02*
X170333333Y-32000000D01*
X170428571Y-31952380D01*
X170666666Y-31952380D01*
X170761904Y-32000000D01*
X170809523Y-32047619D01*
X170857142Y-32142857D01*
X170857142Y-32238095D01*
X170809523Y-32380952D01*
X170238095Y-32952380D01*
X170857142Y-32952380D01*
X171190476Y-31952380D02*
X171809523Y-31952380D01*
X171476190Y-32333333D01*
X171619047Y-32333333D01*
X171714285Y-32380952D01*
X171761904Y-32428571D01*
X171809523Y-32523809D01*
X171809523Y-32761904D01*
X171761904Y-32857142D01*
X171714285Y-32904761D01*
X171619047Y-32952380D01*
X171333333Y-32952380D01*
X171238095Y-32904761D01*
X171190476Y-32857142D01*
X168547619Y-20952380D02*
X168214285Y-20476190D01*
X167976190Y-20952380D02*
X167976190Y-19952380D01*
X168357142Y-19952380D01*
X168452380Y-20000000D01*
X168500000Y-20047619D01*
X168547619Y-20142857D01*
X168547619Y-20285714D01*
X168500000Y-20380952D01*
X168452380Y-20428571D01*
X168357142Y-20476190D01*
X167976190Y-20476190D01*
X168976190Y-20428571D02*
X169309523Y-20428571D01*
X169452380Y-20952380D02*
X168976190Y-20952380D01*
X168976190Y-19952380D01*
X169452380Y-19952380D01*
X169833333Y-20904761D02*
X169976190Y-20952380D01*
X170214285Y-20952380D01*
X170309523Y-20904761D01*
X170357142Y-20857142D01*
X170404761Y-20761904D01*
X170404761Y-20666666D01*
X170357142Y-20571428D01*
X170309523Y-20523809D01*
X170214285Y-20476190D01*
X170023809Y-20428571D01*
X169928571Y-20380952D01*
X169880952Y-20333333D01*
X169833333Y-20238095D01*
X169833333Y-20142857D01*
X169880952Y-20047619D01*
X169928571Y-20000000D01*
X170023809Y-19952380D01*
X170261904Y-19952380D01*
X170404761Y-20000000D01*
X170833333Y-20428571D02*
X171166666Y-20428571D01*
X171309523Y-20952380D02*
X170833333Y-20952380D01*
X170833333Y-19952380D01*
X171309523Y-19952380D01*
X171595238Y-19952380D02*
X172166666Y-19952380D01*
X171880952Y-20952380D02*
X171880952Y-19952380D01*
X243690476Y-32904761D02*
X243833333Y-32952380D01*
X244071428Y-32952380D01*
X244166666Y-32904761D01*
X244214285Y-32857142D01*
X244261904Y-32761904D01*
X244261904Y-32666666D01*
X244214285Y-32571428D01*
X244166666Y-32523809D01*
X244071428Y-32476190D01*
X243880952Y-32428571D01*
X243785714Y-32380952D01*
X243738095Y-32333333D01*
X243690476Y-32238095D01*
X243690476Y-32142857D01*
X243738095Y-32047619D01*
X243785714Y-32000000D01*
X243880952Y-31952380D01*
X244119047Y-31952380D01*
X244261904Y-32000000D01*
X244595238Y-31952380D02*
X244833333Y-32952380D01*
X245023809Y-32238095D01*
X245214285Y-32952380D01*
X245452380Y-31952380D01*
X245785714Y-32047619D02*
X245833333Y-32000000D01*
X245928571Y-31952380D01*
X246166666Y-31952380D01*
X246261904Y-32000000D01*
X246309523Y-32047619D01*
X246357142Y-32142857D01*
X246357142Y-32238095D01*
X246309523Y-32380952D01*
X245738095Y-32952380D01*
X246357142Y-32952380D01*
X247214285Y-32285714D02*
X247214285Y-32952380D01*
X246976190Y-31904761D02*
X246738095Y-32619047D01*
X247357142Y-32619047D01*
X245119047Y-20571428D02*
X245880952Y-20571428D01*
X245690476Y-20761904D02*
X245880952Y-20571428D01*
X245690476Y-20380952D01*
X15890476Y-15204761D02*
X16033333Y-15252380D01*
X16271428Y-15252380D01*
X16366666Y-15204761D01*
X16414285Y-15157142D01*
X16461904Y-15061904D01*
X16461904Y-14966666D01*
X16414285Y-14871428D01*
X16366666Y-14823809D01*
X16271428Y-14776190D01*
X16080952Y-14728571D01*
X15985714Y-14680952D01*
X15938095Y-14633333D01*
X15890476Y-14538095D01*
X15890476Y-14442857D01*
X15938095Y-14347619D01*
X15985714Y-14300000D01*
X16080952Y-14252380D01*
X16319047Y-14252380D01*
X16461904Y-14300000D01*
X16795238Y-14252380D02*
X17033333Y-15252380D01*
X17223809Y-14538095D01*
X17414285Y-15252380D01*
X17652380Y-14252380D01*
X17985714Y-14347619D02*
X18033333Y-14300000D01*
X18128571Y-14252380D01*
X18366666Y-14252380D01*
X18461904Y-14300000D01*
X18509523Y-14347619D01*
X18557142Y-14442857D01*
X18557142Y-14538095D01*
X18509523Y-14680952D01*
X17938095Y-15252380D01*
X18557142Y-15252380D01*
X19461904Y-14252380D02*
X18985714Y-14252380D01*
X18938095Y-14728571D01*
X18985714Y-14680952D01*
X19080952Y-14633333D01*
X19319047Y-14633333D01*
X19414285Y-14680952D01*
X19461904Y-14728571D01*
X19509523Y-14823809D01*
X19509523Y-15061904D01*
X19461904Y-15157142D01*
X19414285Y-15204761D01*
X19319047Y-15252380D01*
X19080952Y-15252380D01*
X18985714Y-15204761D01*
X18938095Y-15157142D01*
X14438095Y-2252380D02*
X14628571Y-2252380D01*
X14723809Y-2300000D01*
X14819047Y-2395238D01*
X14866666Y-2585714D01*
X14866666Y-2919047D01*
X14819047Y-3109523D01*
X14723809Y-3204761D01*
X14628571Y-3252380D01*
X14438095Y-3252380D01*
X14342857Y-3204761D01*
X14247619Y-3109523D01*
X14200000Y-2919047D01*
X14200000Y-2585714D01*
X14247619Y-2395238D01*
X14342857Y-2300000D01*
X14438095Y-2252380D01*
X15295238Y-3252380D02*
X15295238Y-2252380D01*
X15676190Y-2252380D01*
X15771428Y-2300000D01*
X15819047Y-2347619D01*
X15866666Y-2442857D01*
X15866666Y-2585714D01*
X15819047Y-2680952D01*
X15771428Y-2728571D01*
X15676190Y-2776190D01*
X15295238Y-2776190D01*
X16866666Y-3252380D02*
X16533333Y-2776190D01*
X16295238Y-3252380D02*
X16295238Y-2252380D01*
X16676190Y-2252380D01*
X16771428Y-2300000D01*
X16819047Y-2347619D01*
X16866666Y-2442857D01*
X16866666Y-2585714D01*
X16819047Y-2680952D01*
X16771428Y-2728571D01*
X16676190Y-2776190D01*
X16295238Y-2776190D01*
X18009523Y-3204761D02*
X18152380Y-3252380D01*
X18390476Y-3252380D01*
X18485714Y-3204761D01*
X18533333Y-3157142D01*
X18580952Y-3061904D01*
X18580952Y-2966666D01*
X18533333Y-2871428D01*
X18485714Y-2823809D01*
X18390476Y-2776190D01*
X18200000Y-2728571D01*
X18104761Y-2680952D01*
X18057142Y-2633333D01*
X18009523Y-2538095D01*
X18009523Y-2442857D01*
X18057142Y-2347619D01*
X18104761Y-2300000D01*
X18200000Y-2252380D01*
X18438095Y-2252380D01*
X18580952Y-2300000D01*
X18866666Y-2252380D02*
X19438095Y-2252380D01*
X19152380Y-3252380D02*
X19152380Y-2252380D01*
X20104761Y-2728571D02*
X20247619Y-2776190D01*
X20295238Y-2823809D01*
X20342857Y-2919047D01*
X20342857Y-3061904D01*
X20295238Y-3157142D01*
X20247619Y-3204761D01*
X20152380Y-3252380D01*
X19771428Y-3252380D01*
X19771428Y-2252380D01*
X20104761Y-2252380D01*
X20200000Y-2300000D01*
X20247619Y-2347619D01*
X20295238Y-2442857D01*
X20295238Y-2538095D01*
X20247619Y-2633333D01*
X20200000Y-2680952D01*
X20104761Y-2728571D01*
X19771428Y-2728571D01*
X20961904Y-2776190D02*
X20961904Y-3252380D01*
X20628571Y-2252380D02*
X20961904Y-2776190D01*
X21295238Y-2252380D01*
X34890476Y-15404761D02*
X35033333Y-15452380D01*
X35271428Y-15452380D01*
X35366666Y-15404761D01*
X35414285Y-15357142D01*
X35461904Y-15261904D01*
X35461904Y-15166666D01*
X35414285Y-15071428D01*
X35366666Y-15023809D01*
X35271428Y-14976190D01*
X35080952Y-14928571D01*
X34985714Y-14880952D01*
X34938095Y-14833333D01*
X34890476Y-14738095D01*
X34890476Y-14642857D01*
X34938095Y-14547619D01*
X34985714Y-14500000D01*
X35080952Y-14452380D01*
X35319047Y-14452380D01*
X35461904Y-14500000D01*
X35795238Y-14452380D02*
X36033333Y-15452380D01*
X36223809Y-14738095D01*
X36414285Y-15452380D01*
X36652380Y-14452380D01*
X36985714Y-14547619D02*
X37033333Y-14500000D01*
X37128571Y-14452380D01*
X37366666Y-14452380D01*
X37461904Y-14500000D01*
X37509523Y-14547619D01*
X37557142Y-14642857D01*
X37557142Y-14738095D01*
X37509523Y-14880952D01*
X36938095Y-15452380D01*
X37557142Y-15452380D01*
X38414285Y-14452380D02*
X38223809Y-14452380D01*
X38128571Y-14500000D01*
X38080952Y-14547619D01*
X37985714Y-14690476D01*
X37938095Y-14880952D01*
X37938095Y-15261904D01*
X37985714Y-15357142D01*
X38033333Y-15404761D01*
X38128571Y-15452380D01*
X38319047Y-15452380D01*
X38414285Y-15404761D01*
X38461904Y-15357142D01*
X38509523Y-15261904D01*
X38509523Y-15023809D01*
X38461904Y-14928571D01*
X38414285Y-14880952D01*
X38319047Y-14833333D01*
X38128571Y-14833333D01*
X38033333Y-14880952D01*
X37985714Y-14928571D01*
X37938095Y-15023809D01*
X33377619Y-2468571D02*
X33710952Y-2468571D01*
X33853809Y-2992380D02*
X33377619Y-2992380D01*
X33377619Y-1992380D01*
X33853809Y-1992380D01*
X34187142Y-1992380D02*
X34853809Y-2992380D01*
X34853809Y-1992380D02*
X34187142Y-2992380D01*
X35949047Y-2944761D02*
X36091904Y-2992380D01*
X36330000Y-2992380D01*
X36425238Y-2944761D01*
X36472857Y-2897142D01*
X36520476Y-2801904D01*
X36520476Y-2706666D01*
X36472857Y-2611428D01*
X36425238Y-2563809D01*
X36330000Y-2516190D01*
X36139523Y-2468571D01*
X36044285Y-2420952D01*
X35996666Y-2373333D01*
X35949047Y-2278095D01*
X35949047Y-2182857D01*
X35996666Y-2087619D01*
X36044285Y-2040000D01*
X36139523Y-1992380D01*
X36377619Y-1992380D01*
X36520476Y-2040000D01*
X36949047Y-2468571D02*
X37282380Y-2468571D01*
X37425238Y-2992380D02*
X36949047Y-2992380D01*
X36949047Y-1992380D01*
X37425238Y-1992380D01*
X37853809Y-2992380D02*
X37853809Y-1992380D01*
X38425238Y-2992380D01*
X38425238Y-1992380D01*
X38853809Y-2944761D02*
X38996666Y-2992380D01*
X39234761Y-2992380D01*
X39330000Y-2944761D01*
X39377619Y-2897142D01*
X39425238Y-2801904D01*
X39425238Y-2706666D01*
X39377619Y-2611428D01*
X39330000Y-2563809D01*
X39234761Y-2516190D01*
X39044285Y-2468571D01*
X38949047Y-2420952D01*
X38901428Y-2373333D01*
X38853809Y-2278095D01*
X38853809Y-2182857D01*
X38901428Y-2087619D01*
X38949047Y-2040000D01*
X39044285Y-1992380D01*
X39282380Y-1992380D01*
X39425238Y-2040000D01*
X39853809Y-2468571D02*
X40187142Y-2468571D01*
X40330000Y-2992380D02*
X39853809Y-2992380D01*
X39853809Y-1992380D01*
X40330000Y-1992380D01*
X246190476Y-15204761D02*
X246333333Y-15252380D01*
X246571428Y-15252380D01*
X246666666Y-15204761D01*
X246714285Y-15157142D01*
X246761904Y-15061904D01*
X246761904Y-14966666D01*
X246714285Y-14871428D01*
X246666666Y-14823809D01*
X246571428Y-14776190D01*
X246380952Y-14728571D01*
X246285714Y-14680952D01*
X246238095Y-14633333D01*
X246190476Y-14538095D01*
X246190476Y-14442857D01*
X246238095Y-14347619D01*
X246285714Y-14300000D01*
X246380952Y-14252380D01*
X246619047Y-14252380D01*
X246761904Y-14300000D01*
X247095238Y-14252380D02*
X247333333Y-15252380D01*
X247523809Y-14538095D01*
X247714285Y-15252380D01*
X247952380Y-14252380D01*
X248761904Y-14585714D02*
X248761904Y-15252380D01*
X248523809Y-14204761D02*
X248285714Y-14919047D01*
X248904761Y-14919047D01*
X249476190Y-14252380D02*
X249571428Y-14252380D01*
X249666666Y-14300000D01*
X249714285Y-14347619D01*
X249761904Y-14442857D01*
X249809523Y-14633333D01*
X249809523Y-14871428D01*
X249761904Y-15061904D01*
X249714285Y-15157142D01*
X249666666Y-15204761D01*
X249571428Y-15252380D01*
X249476190Y-15252380D01*
X249380952Y-15204761D01*
X249333333Y-15157142D01*
X249285714Y-15061904D01*
X249238095Y-14871428D01*
X249238095Y-14633333D01*
X249285714Y-14442857D01*
X249333333Y-14347619D01*
X249380952Y-14300000D01*
X249476190Y-14252380D01*
X245523809Y-3204761D02*
X245666666Y-3252380D01*
X245904761Y-3252380D01*
X246000000Y-3204761D01*
X246047619Y-3157142D01*
X246095238Y-3061904D01*
X246095238Y-2966666D01*
X246047619Y-2871428D01*
X246000000Y-2823809D01*
X245904761Y-2776190D01*
X245714285Y-2728571D01*
X245619047Y-2680952D01*
X245571428Y-2633333D01*
X245523809Y-2538095D01*
X245523809Y-2442857D01*
X245571428Y-2347619D01*
X245619047Y-2300000D01*
X245714285Y-2252380D01*
X245952380Y-2252380D01*
X246095238Y-2300000D01*
X246714285Y-2252380D02*
X246904761Y-2252380D01*
X247000000Y-2300000D01*
X247095238Y-2395238D01*
X247142857Y-2585714D01*
X247142857Y-2919047D01*
X247095238Y-3109523D01*
X247000000Y-3204761D01*
X246904761Y-3252380D01*
X246714285Y-3252380D01*
X246619047Y-3204761D01*
X246523809Y-3109523D01*
X246476190Y-2919047D01*
X246476190Y-2585714D01*
X246523809Y-2395238D01*
X246619047Y-2300000D01*
X246714285Y-2252380D01*
X247904761Y-2728571D02*
X247571428Y-2728571D01*
X247571428Y-3252380D02*
X247571428Y-2252380D01*
X248047619Y-2252380D01*
X248285714Y-2252380D02*
X248857142Y-2252380D01*
X248571428Y-3252380D02*
X248571428Y-2252380D01*
X250428571Y-2252380D02*
X249952380Y-2252380D01*
X249904761Y-2728571D01*
X249952380Y-2680952D01*
X250047619Y-2633333D01*
X250285714Y-2633333D01*
X250380952Y-2680952D01*
X250428571Y-2728571D01*
X250476190Y-2823809D01*
X250476190Y-3061904D01*
X250428571Y-3157142D01*
X250380952Y-3204761D01*
X250285714Y-3252380D01*
X250047619Y-3252380D01*
X249952380Y-3204761D01*
X249904761Y-3157142D01*
X220190476Y-15204761D02*
X220333333Y-15252380D01*
X220571428Y-15252380D01*
X220666666Y-15204761D01*
X220714285Y-15157142D01*
X220761904Y-15061904D01*
X220761904Y-14966666D01*
X220714285Y-14871428D01*
X220666666Y-14823809D01*
X220571428Y-14776190D01*
X220380952Y-14728571D01*
X220285714Y-14680952D01*
X220238095Y-14633333D01*
X220190476Y-14538095D01*
X220190476Y-14442857D01*
X220238095Y-14347619D01*
X220285714Y-14300000D01*
X220380952Y-14252380D01*
X220619047Y-14252380D01*
X220761904Y-14300000D01*
X221095238Y-14252380D02*
X221333333Y-15252380D01*
X221523809Y-14538095D01*
X221714285Y-15252380D01*
X221952380Y-14252380D01*
X222238095Y-14252380D02*
X222857142Y-14252380D01*
X222523809Y-14633333D01*
X222666666Y-14633333D01*
X222761904Y-14680952D01*
X222809523Y-14728571D01*
X222857142Y-14823809D01*
X222857142Y-15061904D01*
X222809523Y-15157142D01*
X222761904Y-15204761D01*
X222666666Y-15252380D01*
X222380952Y-15252380D01*
X222285714Y-15204761D01*
X222238095Y-15157142D01*
X223238095Y-14347619D02*
X223285714Y-14300000D01*
X223380952Y-14252380D01*
X223619047Y-14252380D01*
X223714285Y-14300000D01*
X223761904Y-14347619D01*
X223809523Y-14442857D01*
X223809523Y-14538095D01*
X223761904Y-14680952D01*
X223190476Y-15252380D01*
X223809523Y-15252380D01*
X219523809Y-3204761D02*
X219666666Y-3252380D01*
X219904761Y-3252380D01*
X220000000Y-3204761D01*
X220047619Y-3157142D01*
X220095238Y-3061904D01*
X220095238Y-2966666D01*
X220047619Y-2871428D01*
X220000000Y-2823809D01*
X219904761Y-2776190D01*
X219714285Y-2728571D01*
X219619047Y-2680952D01*
X219571428Y-2633333D01*
X219523809Y-2538095D01*
X219523809Y-2442857D01*
X219571428Y-2347619D01*
X219619047Y-2300000D01*
X219714285Y-2252380D01*
X219952380Y-2252380D01*
X220095238Y-2300000D01*
X220714285Y-2252380D02*
X220904761Y-2252380D01*
X221000000Y-2300000D01*
X221095238Y-2395238D01*
X221142857Y-2585714D01*
X221142857Y-2919047D01*
X221095238Y-3109523D01*
X221000000Y-3204761D01*
X220904761Y-3252380D01*
X220714285Y-3252380D01*
X220619047Y-3204761D01*
X220523809Y-3109523D01*
X220476190Y-2919047D01*
X220476190Y-2585714D01*
X220523809Y-2395238D01*
X220619047Y-2300000D01*
X220714285Y-2252380D01*
X221904761Y-2728571D02*
X221571428Y-2728571D01*
X221571428Y-3252380D02*
X221571428Y-2252380D01*
X222047619Y-2252380D01*
X222285714Y-2252380D02*
X222857142Y-2252380D01*
X222571428Y-3252380D02*
X222571428Y-2252380D01*
X224380952Y-2585714D02*
X224380952Y-3252380D01*
X224142857Y-2204761D02*
X223904761Y-2919047D01*
X224523809Y-2919047D01*
X149190476Y-82404761D02*
X149333333Y-82452380D01*
X149571428Y-82452380D01*
X149666666Y-82404761D01*
X149714285Y-82357142D01*
X149761904Y-82261904D01*
X149761904Y-82166666D01*
X149714285Y-82071428D01*
X149666666Y-82023809D01*
X149571428Y-81976190D01*
X149380952Y-81928571D01*
X149285714Y-81880952D01*
X149238095Y-81833333D01*
X149190476Y-81738095D01*
X149190476Y-81642857D01*
X149238095Y-81547619D01*
X149285714Y-81500000D01*
X149380952Y-81452380D01*
X149619047Y-81452380D01*
X149761904Y-81500000D01*
X150095238Y-81452380D02*
X150333333Y-82452380D01*
X150523809Y-81738095D01*
X150714285Y-82452380D01*
X150952380Y-81452380D01*
X151761904Y-81785714D02*
X151761904Y-82452380D01*
X151523809Y-81404761D02*
X151285714Y-82119047D01*
X151904761Y-82119047D01*
X152761904Y-81452380D02*
X152285714Y-81452380D01*
X152238095Y-81928571D01*
X152285714Y-81880952D01*
X152380952Y-81833333D01*
X152619047Y-81833333D01*
X152714285Y-81880952D01*
X152761904Y-81928571D01*
X152809523Y-82023809D01*
X152809523Y-82261904D01*
X152761904Y-82357142D01*
X152714285Y-82404761D01*
X152619047Y-82452380D01*
X152380952Y-82452380D01*
X152285714Y-82404761D01*
X152238095Y-82357142D01*
X149785714Y-70452380D02*
X150309523Y-69785714D01*
X149785714Y-69785714D02*
X150309523Y-70452380D01*
X151214285Y-70452380D02*
X150642857Y-70452380D01*
X150928571Y-70452380D02*
X150928571Y-69452380D01*
X150833333Y-69595238D01*
X150738095Y-69690476D01*
X150642857Y-69738095D01*
X151833333Y-69452380D02*
X151928571Y-69452380D01*
X152023809Y-69500000D01*
X152071428Y-69547619D01*
X152119047Y-69642857D01*
X152166666Y-69833333D01*
X152166666Y-70071428D01*
X152119047Y-70261904D01*
X152071428Y-70357142D01*
X152023809Y-70404761D01*
X151928571Y-70452380D01*
X151833333Y-70452380D01*
X151738095Y-70404761D01*
X151690476Y-70357142D01*
X151642857Y-70261904D01*
X151595238Y-70071428D01*
X151595238Y-69833333D01*
X151642857Y-69642857D01*
X151690476Y-69547619D01*
X151738095Y-69500000D01*
X151833333Y-69452380D01*
X120690476Y-49404761D02*
X120833333Y-49452380D01*
X121071428Y-49452380D01*
X121166666Y-49404761D01*
X121214285Y-49357142D01*
X121261904Y-49261904D01*
X121261904Y-49166666D01*
X121214285Y-49071428D01*
X121166666Y-49023809D01*
X121071428Y-48976190D01*
X120880952Y-48928571D01*
X120785714Y-48880952D01*
X120738095Y-48833333D01*
X120690476Y-48738095D01*
X120690476Y-48642857D01*
X120738095Y-48547619D01*
X120785714Y-48500000D01*
X120880952Y-48452380D01*
X121119047Y-48452380D01*
X121261904Y-48500000D01*
X121595238Y-48452380D02*
X121833333Y-49452380D01*
X122023809Y-48738095D01*
X122214285Y-49452380D01*
X122452380Y-48452380D01*
X122738095Y-48452380D02*
X123357142Y-48452380D01*
X123023809Y-48833333D01*
X123166666Y-48833333D01*
X123261904Y-48880952D01*
X123309523Y-48928571D01*
X123357142Y-49023809D01*
X123357142Y-49261904D01*
X123309523Y-49357142D01*
X123261904Y-49404761D01*
X123166666Y-49452380D01*
X122880952Y-49452380D01*
X122785714Y-49404761D01*
X122738095Y-49357142D01*
X123690476Y-48452380D02*
X124357142Y-48452380D01*
X123928571Y-49452380D01*
X121595238Y-37452380D02*
X121595238Y-36452380D01*
X121595238Y-37404761D02*
X121500000Y-37452380D01*
X121309523Y-37452380D01*
X121214285Y-37404761D01*
X121166666Y-37357142D01*
X121119047Y-37261904D01*
X121119047Y-36976190D01*
X121166666Y-36880952D01*
X121214285Y-36833333D01*
X121309523Y-36785714D01*
X121500000Y-36785714D01*
X121595238Y-36833333D01*
X122071428Y-37452380D02*
X122071428Y-36452380D01*
X122071428Y-36833333D02*
X122166666Y-36785714D01*
X122357142Y-36785714D01*
X122452380Y-36833333D01*
X122500000Y-36880952D01*
X122547619Y-36976190D01*
X122547619Y-37261904D01*
X122500000Y-37357142D01*
X122452380Y-37404761D01*
X122357142Y-37452380D01*
X122166666Y-37452380D01*
X122071428Y-37404761D01*
X122976190Y-37452380D02*
X122976190Y-36785714D01*
X122976190Y-36880952D02*
X123023809Y-36833333D01*
X123119047Y-36785714D01*
X123261904Y-36785714D01*
X123357142Y-36833333D01*
X123404761Y-36928571D01*
X123404761Y-37452380D01*
X123404761Y-36928571D02*
X123452380Y-36833333D01*
X123547619Y-36785714D01*
X123690476Y-36785714D01*
X123785714Y-36833333D01*
X123833333Y-36928571D01*
X123833333Y-37452380D01*
X34890476Y-82404761D02*
X35033333Y-82452380D01*
X35271428Y-82452380D01*
X35366666Y-82404761D01*
X35414285Y-82357142D01*
X35461904Y-82261904D01*
X35461904Y-82166666D01*
X35414285Y-82071428D01*
X35366666Y-82023809D01*
X35271428Y-81976190D01*
X35080952Y-81928571D01*
X34985714Y-81880952D01*
X34938095Y-81833333D01*
X34890476Y-81738095D01*
X34890476Y-81642857D01*
X34938095Y-81547619D01*
X34985714Y-81500000D01*
X35080952Y-81452380D01*
X35319047Y-81452380D01*
X35461904Y-81500000D01*
X35795238Y-81452380D02*
X36033333Y-82452380D01*
X36223809Y-81738095D01*
X36414285Y-82452380D01*
X36652380Y-81452380D01*
X36938095Y-81452380D02*
X37557142Y-81452380D01*
X37223809Y-81833333D01*
X37366666Y-81833333D01*
X37461904Y-81880952D01*
X37509523Y-81928571D01*
X37557142Y-82023809D01*
X37557142Y-82261904D01*
X37509523Y-82357142D01*
X37461904Y-82404761D01*
X37366666Y-82452380D01*
X37080952Y-82452380D01*
X36985714Y-82404761D01*
X36938095Y-82357142D01*
X38414285Y-81785714D02*
X38414285Y-82452380D01*
X38176190Y-81404761D02*
X37938095Y-82119047D01*
X38557142Y-82119047D01*
X36652380Y-69452380D02*
X36747619Y-69452380D01*
X36842857Y-69500000D01*
X36890476Y-69547619D01*
X36938095Y-69642857D01*
X36985714Y-69833333D01*
X36985714Y-70071428D01*
X36938095Y-70261904D01*
X36890476Y-70357142D01*
X36842857Y-70404761D01*
X36747619Y-70452380D01*
X36652380Y-70452380D01*
X36557142Y-70404761D01*
X36509523Y-70357142D01*
X36461904Y-70261904D01*
X36414285Y-70071428D01*
X36414285Y-69833333D01*
X36461904Y-69642857D01*
X36509523Y-69547619D01*
X36557142Y-69500000D01*
X36652380Y-69452380D01*
X168190476Y-65904761D02*
X168333333Y-65952380D01*
X168571428Y-65952380D01*
X168666666Y-65904761D01*
X168714285Y-65857142D01*
X168761904Y-65761904D01*
X168761904Y-65666666D01*
X168714285Y-65571428D01*
X168666666Y-65523809D01*
X168571428Y-65476190D01*
X168380952Y-65428571D01*
X168285714Y-65380952D01*
X168238095Y-65333333D01*
X168190476Y-65238095D01*
X168190476Y-65142857D01*
X168238095Y-65047619D01*
X168285714Y-65000000D01*
X168380952Y-64952380D01*
X168619047Y-64952380D01*
X168761904Y-65000000D01*
X169095238Y-64952380D02*
X169333333Y-65952380D01*
X169523809Y-65238095D01*
X169714285Y-65952380D01*
X169952380Y-64952380D01*
X170238095Y-64952380D02*
X170857142Y-64952380D01*
X170523809Y-65333333D01*
X170666666Y-65333333D01*
X170761904Y-65380952D01*
X170809523Y-65428571D01*
X170857142Y-65523809D01*
X170857142Y-65761904D01*
X170809523Y-65857142D01*
X170761904Y-65904761D01*
X170666666Y-65952380D01*
X170380952Y-65952380D01*
X170285714Y-65904761D01*
X170238095Y-65857142D01*
X171809523Y-65952380D02*
X171238095Y-65952380D01*
X171523809Y-65952380D02*
X171523809Y-64952380D01*
X171428571Y-65095238D01*
X171333333Y-65190476D01*
X171238095Y-65238095D01*
X168880952Y-53952380D02*
X168404761Y-53952380D01*
X168404761Y-52952380D01*
X169214285Y-53952380D02*
X169214285Y-52952380D01*
X169690476Y-53952380D02*
X169690476Y-52952380D01*
X170023809Y-53666666D01*
X170357142Y-52952380D01*
X170357142Y-53952380D01*
X170833333Y-53952380D02*
X170833333Y-52952380D01*
X171166666Y-52952380D02*
X171738095Y-52952380D01*
X171452380Y-53952380D02*
X171452380Y-52952380D01*
X82690476Y-82404761D02*
X82833333Y-82452380D01*
X83071428Y-82452380D01*
X83166666Y-82404761D01*
X83214285Y-82357142D01*
X83261904Y-82261904D01*
X83261904Y-82166666D01*
X83214285Y-82071428D01*
X83166666Y-82023809D01*
X83071428Y-81976190D01*
X82880952Y-81928571D01*
X82785714Y-81880952D01*
X82738095Y-81833333D01*
X82690476Y-81738095D01*
X82690476Y-81642857D01*
X82738095Y-81547619D01*
X82785714Y-81500000D01*
X82880952Y-81452380D01*
X83119047Y-81452380D01*
X83261904Y-81500000D01*
X83595238Y-81452380D02*
X83833333Y-82452380D01*
X84023809Y-81738095D01*
X84214285Y-82452380D01*
X84452380Y-81452380D01*
X84738095Y-81452380D02*
X85357142Y-81452380D01*
X85023809Y-81833333D01*
X85166666Y-81833333D01*
X85261904Y-81880952D01*
X85309523Y-81928571D01*
X85357142Y-82023809D01*
X85357142Y-82261904D01*
X85309523Y-82357142D01*
X85261904Y-82404761D01*
X85166666Y-82452380D01*
X84880952Y-82452380D01*
X84785714Y-82404761D01*
X84738095Y-82357142D01*
X86261904Y-81452380D02*
X85785714Y-81452380D01*
X85738095Y-81928571D01*
X85785714Y-81880952D01*
X85880952Y-81833333D01*
X86119047Y-81833333D01*
X86214285Y-81880952D01*
X86261904Y-81928571D01*
X86309523Y-82023809D01*
X86309523Y-82261904D01*
X86261904Y-82357142D01*
X86214285Y-82404761D01*
X86119047Y-82452380D01*
X85880952Y-82452380D01*
X85785714Y-82404761D01*
X85738095Y-82357142D01*
X84166666Y-70452380D02*
X84166666Y-69452380D01*
X84500000Y-70166666D01*
X84833333Y-69452380D01*
X84833333Y-70452380D01*
X53890476Y-82404761D02*
X54033333Y-82452380D01*
X54271428Y-82452380D01*
X54366666Y-82404761D01*
X54414285Y-82357142D01*
X54461904Y-82261904D01*
X54461904Y-82166666D01*
X54414285Y-82071428D01*
X54366666Y-82023809D01*
X54271428Y-81976190D01*
X54080952Y-81928571D01*
X53985714Y-81880952D01*
X53938095Y-81833333D01*
X53890476Y-81738095D01*
X53890476Y-81642857D01*
X53938095Y-81547619D01*
X53985714Y-81500000D01*
X54080952Y-81452380D01*
X54319047Y-81452380D01*
X54461904Y-81500000D01*
X54795238Y-81452380D02*
X55033333Y-82452380D01*
X55223809Y-81738095D01*
X55414285Y-82452380D01*
X55652380Y-81452380D01*
X56461904Y-81785714D02*
X56461904Y-82452380D01*
X56223809Y-81404761D02*
X55985714Y-82119047D01*
X56604761Y-82119047D01*
X57509523Y-82452380D02*
X56938095Y-82452380D01*
X57223809Y-82452380D02*
X57223809Y-81452380D01*
X57128571Y-81595238D01*
X57033333Y-81690476D01*
X56938095Y-81738095D01*
X55700000Y-70357142D02*
X55747619Y-70404761D01*
X55700000Y-70452380D01*
X55652380Y-70404761D01*
X55700000Y-70357142D01*
X55700000Y-70452380D01*
X53890476Y-65904761D02*
X54033333Y-65952380D01*
X54271428Y-65952380D01*
X54366666Y-65904761D01*
X54414285Y-65857142D01*
X54461904Y-65761904D01*
X54461904Y-65666666D01*
X54414285Y-65571428D01*
X54366666Y-65523809D01*
X54271428Y-65476190D01*
X54080952Y-65428571D01*
X53985714Y-65380952D01*
X53938095Y-65333333D01*
X53890476Y-65238095D01*
X53890476Y-65142857D01*
X53938095Y-65047619D01*
X53985714Y-65000000D01*
X54080952Y-64952380D01*
X54319047Y-64952380D01*
X54461904Y-65000000D01*
X54795238Y-64952380D02*
X55033333Y-65952380D01*
X55223809Y-65238095D01*
X55414285Y-65952380D01*
X55652380Y-64952380D01*
X56461904Y-65285714D02*
X56461904Y-65952380D01*
X56223809Y-64904761D02*
X55985714Y-65619047D01*
X56604761Y-65619047D01*
X56938095Y-65047619D02*
X56985714Y-65000000D01*
X57080952Y-64952380D01*
X57319047Y-64952380D01*
X57414285Y-65000000D01*
X57461904Y-65047619D01*
X57509523Y-65142857D01*
X57509523Y-65238095D01*
X57461904Y-65380952D01*
X56890476Y-65952380D01*
X57509523Y-65952380D01*
X55366666Y-52952380D02*
X55985714Y-52952380D01*
X55652380Y-53333333D01*
X55795238Y-53333333D01*
X55890476Y-53380952D01*
X55938095Y-53428571D01*
X55985714Y-53523809D01*
X55985714Y-53761904D01*
X55938095Y-53857142D01*
X55890476Y-53904761D01*
X55795238Y-53952380D01*
X55509523Y-53952380D01*
X55414285Y-53904761D01*
X55366666Y-53857142D01*
X111190476Y-82404761D02*
X111333333Y-82452380D01*
X111571428Y-82452380D01*
X111666666Y-82404761D01*
X111714285Y-82357142D01*
X111761904Y-82261904D01*
X111761904Y-82166666D01*
X111714285Y-82071428D01*
X111666666Y-82023809D01*
X111571428Y-81976190D01*
X111380952Y-81928571D01*
X111285714Y-81880952D01*
X111238095Y-81833333D01*
X111190476Y-81738095D01*
X111190476Y-81642857D01*
X111238095Y-81547619D01*
X111285714Y-81500000D01*
X111380952Y-81452380D01*
X111619047Y-81452380D01*
X111761904Y-81500000D01*
X112095238Y-81452380D02*
X112333333Y-82452380D01*
X112523809Y-81738095D01*
X112714285Y-82452380D01*
X112952380Y-81452380D01*
X113761904Y-81785714D02*
X113761904Y-82452380D01*
X113523809Y-81404761D02*
X113285714Y-82119047D01*
X113904761Y-82119047D01*
X114190476Y-81452380D02*
X114809523Y-81452380D01*
X114476190Y-81833333D01*
X114619047Y-81833333D01*
X114714285Y-81880952D01*
X114761904Y-81928571D01*
X114809523Y-82023809D01*
X114809523Y-82261904D01*
X114761904Y-82357142D01*
X114714285Y-82404761D01*
X114619047Y-82452380D01*
X114333333Y-82452380D01*
X114238095Y-82404761D01*
X114190476Y-82357142D01*
X110928571Y-69928571D02*
X111261904Y-69928571D01*
X111404761Y-70452380D02*
X110928571Y-70452380D01*
X110928571Y-69452380D01*
X111404761Y-69452380D01*
X111833333Y-70452380D02*
X111833333Y-69452380D01*
X112404761Y-70452380D01*
X112404761Y-69452380D01*
X112738095Y-69452380D02*
X113309523Y-69452380D01*
X113023809Y-70452380D02*
X113023809Y-69452380D01*
X113642857Y-69928571D02*
X113976190Y-69928571D01*
X114119047Y-70452380D02*
X113642857Y-70452380D01*
X113642857Y-69452380D01*
X114119047Y-69452380D01*
X115119047Y-70452380D02*
X114785714Y-69976190D01*
X114547619Y-70452380D02*
X114547619Y-69452380D01*
X114928571Y-69452380D01*
X115023809Y-69500000D01*
X115071428Y-69547619D01*
X115119047Y-69642857D01*
X115119047Y-69785714D01*
X115071428Y-69880952D01*
X115023809Y-69928571D01*
X114928571Y-69976190D01*
X114547619Y-69976190D01*
X15890476Y-82404761D02*
X16033333Y-82452380D01*
X16271428Y-82452380D01*
X16366666Y-82404761D01*
X16414285Y-82357142D01*
X16461904Y-82261904D01*
X16461904Y-82166666D01*
X16414285Y-82071428D01*
X16366666Y-82023809D01*
X16271428Y-81976190D01*
X16080952Y-81928571D01*
X15985714Y-81880952D01*
X15938095Y-81833333D01*
X15890476Y-81738095D01*
X15890476Y-81642857D01*
X15938095Y-81547619D01*
X15985714Y-81500000D01*
X16080952Y-81452380D01*
X16319047Y-81452380D01*
X16461904Y-81500000D01*
X16795238Y-81452380D02*
X17033333Y-82452380D01*
X17223809Y-81738095D01*
X17414285Y-82452380D01*
X17652380Y-81452380D01*
X17938095Y-81452380D02*
X18557142Y-81452380D01*
X18223809Y-81833333D01*
X18366666Y-81833333D01*
X18461904Y-81880952D01*
X18509523Y-81928571D01*
X18557142Y-82023809D01*
X18557142Y-82261904D01*
X18509523Y-82357142D01*
X18461904Y-82404761D01*
X18366666Y-82452380D01*
X18080952Y-82452380D01*
X17985714Y-82404761D01*
X17938095Y-82357142D01*
X18890476Y-81452380D02*
X19509523Y-81452380D01*
X19176190Y-81833333D01*
X19319047Y-81833333D01*
X19414285Y-81880952D01*
X19461904Y-81928571D01*
X19509523Y-82023809D01*
X19509523Y-82261904D01*
X19461904Y-82357142D01*
X19414285Y-82404761D01*
X19319047Y-82452380D01*
X19033333Y-82452380D01*
X18938095Y-82404761D01*
X18890476Y-82357142D01*
X16842857Y-70071428D02*
X17604761Y-70071428D01*
X17223809Y-70452380D02*
X17223809Y-69690476D01*
X18604761Y-70452380D02*
X18033333Y-70452380D01*
X18319047Y-70452380D02*
X18319047Y-69452380D01*
X18223809Y-69595238D01*
X18128571Y-69690476D01*
X18033333Y-69738095D01*
X82690476Y-49404761D02*
X82833333Y-49452380D01*
X83071428Y-49452380D01*
X83166666Y-49404761D01*
X83214285Y-49357142D01*
X83261904Y-49261904D01*
X83261904Y-49166666D01*
X83214285Y-49071428D01*
X83166666Y-49023809D01*
X83071428Y-48976190D01*
X82880952Y-48928571D01*
X82785714Y-48880952D01*
X82738095Y-48833333D01*
X82690476Y-48738095D01*
X82690476Y-48642857D01*
X82738095Y-48547619D01*
X82785714Y-48500000D01*
X82880952Y-48452380D01*
X83119047Y-48452380D01*
X83261904Y-48500000D01*
X83595238Y-48452380D02*
X83833333Y-49452380D01*
X84023809Y-48738095D01*
X84214285Y-49452380D01*
X84452380Y-48452380D01*
X84738095Y-48452380D02*
X85357142Y-48452380D01*
X85023809Y-48833333D01*
X85166666Y-48833333D01*
X85261904Y-48880952D01*
X85309523Y-48928571D01*
X85357142Y-49023809D01*
X85357142Y-49261904D01*
X85309523Y-49357142D01*
X85261904Y-49404761D01*
X85166666Y-49452380D01*
X84880952Y-49452380D01*
X84785714Y-49404761D01*
X84738095Y-49357142D01*
X86214285Y-48452380D02*
X86023809Y-48452380D01*
X85928571Y-48500000D01*
X85880952Y-48547619D01*
X85785714Y-48690476D01*
X85738095Y-48880952D01*
X85738095Y-49261904D01*
X85785714Y-49357142D01*
X85833333Y-49404761D01*
X85928571Y-49452380D01*
X86119047Y-49452380D01*
X86214285Y-49404761D01*
X86261904Y-49357142D01*
X86309523Y-49261904D01*
X86309523Y-49023809D01*
X86261904Y-48928571D01*
X86214285Y-48880952D01*
X86119047Y-48833333D01*
X85928571Y-48833333D01*
X85833333Y-48880952D01*
X85785714Y-48928571D01*
X85738095Y-49023809D01*
X84071428Y-37452380D02*
X84071428Y-36785714D01*
X84071428Y-36880952D02*
X84119047Y-36833333D01*
X84214285Y-36785714D01*
X84357142Y-36785714D01*
X84452380Y-36833333D01*
X84500000Y-36928571D01*
X84500000Y-37452380D01*
X84500000Y-36928571D02*
X84547619Y-36833333D01*
X84642857Y-36785714D01*
X84785714Y-36785714D01*
X84880952Y-36833333D01*
X84928571Y-36928571D01*
X84928571Y-37452380D01*
X168190476Y-15204761D02*
X168333333Y-15252380D01*
X168571428Y-15252380D01*
X168666666Y-15204761D01*
X168714285Y-15157142D01*
X168761904Y-15061904D01*
X168761904Y-14966666D01*
X168714285Y-14871428D01*
X168666666Y-14823809D01*
X168571428Y-14776190D01*
X168380952Y-14728571D01*
X168285714Y-14680952D01*
X168238095Y-14633333D01*
X168190476Y-14538095D01*
X168190476Y-14442857D01*
X168238095Y-14347619D01*
X168285714Y-14300000D01*
X168380952Y-14252380D01*
X168619047Y-14252380D01*
X168761904Y-14300000D01*
X169095238Y-14252380D02*
X169333333Y-15252380D01*
X169523809Y-14538095D01*
X169714285Y-15252380D01*
X169952380Y-14252380D01*
X170238095Y-14252380D02*
X170857142Y-14252380D01*
X170523809Y-14633333D01*
X170666666Y-14633333D01*
X170761904Y-14680952D01*
X170809523Y-14728571D01*
X170857142Y-14823809D01*
X170857142Y-15061904D01*
X170809523Y-15157142D01*
X170761904Y-15204761D01*
X170666666Y-15252380D01*
X170380952Y-15252380D01*
X170285714Y-15204761D01*
X170238095Y-15157142D01*
X171428571Y-14680952D02*
X171333333Y-14633333D01*
X171285714Y-14585714D01*
X171238095Y-14490476D01*
X171238095Y-14442857D01*
X171285714Y-14347619D01*
X171333333Y-14300000D01*
X171428571Y-14252380D01*
X171619047Y-14252380D01*
X171714285Y-14300000D01*
X171761904Y-14347619D01*
X171809523Y-14442857D01*
X171809523Y-14490476D01*
X171761904Y-14585714D01*
X171714285Y-14633333D01*
X171619047Y-14680952D01*
X171428571Y-14680952D01*
X171333333Y-14728571D01*
X171285714Y-14776190D01*
X171238095Y-14871428D01*
X171238095Y-15061904D01*
X171285714Y-15157142D01*
X171333333Y-15204761D01*
X171428571Y-15252380D01*
X171619047Y-15252380D01*
X171714285Y-15204761D01*
X171761904Y-15157142D01*
X171809523Y-15061904D01*
X171809523Y-14871428D01*
X171761904Y-14776190D01*
X171714285Y-14728571D01*
X171619047Y-14680952D01*
X167523809Y-3204761D02*
X167666666Y-3252380D01*
X167904761Y-3252380D01*
X168000000Y-3204761D01*
X168047619Y-3157142D01*
X168095238Y-3061904D01*
X168095238Y-2966666D01*
X168047619Y-2871428D01*
X168000000Y-2823809D01*
X167904761Y-2776190D01*
X167714285Y-2728571D01*
X167619047Y-2680952D01*
X167571428Y-2633333D01*
X167523809Y-2538095D01*
X167523809Y-2442857D01*
X167571428Y-2347619D01*
X167619047Y-2300000D01*
X167714285Y-2252380D01*
X167952380Y-2252380D01*
X168095238Y-2300000D01*
X168714285Y-2252380D02*
X168904761Y-2252380D01*
X169000000Y-2300000D01*
X169095238Y-2395238D01*
X169142857Y-2585714D01*
X169142857Y-2919047D01*
X169095238Y-3109523D01*
X169000000Y-3204761D01*
X168904761Y-3252380D01*
X168714285Y-3252380D01*
X168619047Y-3204761D01*
X168523809Y-3109523D01*
X168476190Y-2919047D01*
X168476190Y-2585714D01*
X168523809Y-2395238D01*
X168619047Y-2300000D01*
X168714285Y-2252380D01*
X169904761Y-2728571D02*
X169571428Y-2728571D01*
X169571428Y-3252380D02*
X169571428Y-2252380D01*
X170047619Y-2252380D01*
X170285714Y-2252380D02*
X170857142Y-2252380D01*
X170571428Y-3252380D02*
X170571428Y-2252380D01*
X171904761Y-2347619D02*
X171952380Y-2300000D01*
X172047619Y-2252380D01*
X172285714Y-2252380D01*
X172380952Y-2300000D01*
X172428571Y-2347619D01*
X172476190Y-2442857D01*
X172476190Y-2538095D01*
X172428571Y-2680952D01*
X171857142Y-3252380D01*
X172476190Y-3252380D01*
X194190476Y-15204761D02*
X194333333Y-15252380D01*
X194571428Y-15252380D01*
X194666666Y-15204761D01*
X194714285Y-15157142D01*
X194761904Y-15061904D01*
X194761904Y-14966666D01*
X194714285Y-14871428D01*
X194666666Y-14823809D01*
X194571428Y-14776190D01*
X194380952Y-14728571D01*
X194285714Y-14680952D01*
X194238095Y-14633333D01*
X194190476Y-14538095D01*
X194190476Y-14442857D01*
X194238095Y-14347619D01*
X194285714Y-14300000D01*
X194380952Y-14252380D01*
X194619047Y-14252380D01*
X194761904Y-14300000D01*
X195095238Y-14252380D02*
X195333333Y-15252380D01*
X195523809Y-14538095D01*
X195714285Y-15252380D01*
X195952380Y-14252380D01*
X196238095Y-14252380D02*
X196857142Y-14252380D01*
X196523809Y-14633333D01*
X196666666Y-14633333D01*
X196761904Y-14680952D01*
X196809523Y-14728571D01*
X196857142Y-14823809D01*
X196857142Y-15061904D01*
X196809523Y-15157142D01*
X196761904Y-15204761D01*
X196666666Y-15252380D01*
X196380952Y-15252380D01*
X196285714Y-15204761D01*
X196238095Y-15157142D01*
X197333333Y-15252380D02*
X197523809Y-15252380D01*
X197619047Y-15204761D01*
X197666666Y-15157142D01*
X197761904Y-15014285D01*
X197809523Y-14823809D01*
X197809523Y-14442857D01*
X197761904Y-14347619D01*
X197714285Y-14300000D01*
X197619047Y-14252380D01*
X197428571Y-14252380D01*
X197333333Y-14300000D01*
X197285714Y-14347619D01*
X197238095Y-14442857D01*
X197238095Y-14680952D01*
X197285714Y-14776190D01*
X197333333Y-14823809D01*
X197428571Y-14871428D01*
X197619047Y-14871428D01*
X197714285Y-14823809D01*
X197761904Y-14776190D01*
X197809523Y-14680952D01*
X193523809Y-3204761D02*
X193666666Y-3252380D01*
X193904761Y-3252380D01*
X194000000Y-3204761D01*
X194047619Y-3157142D01*
X194095238Y-3061904D01*
X194095238Y-2966666D01*
X194047619Y-2871428D01*
X194000000Y-2823809D01*
X193904761Y-2776190D01*
X193714285Y-2728571D01*
X193619047Y-2680952D01*
X193571428Y-2633333D01*
X193523809Y-2538095D01*
X193523809Y-2442857D01*
X193571428Y-2347619D01*
X193619047Y-2300000D01*
X193714285Y-2252380D01*
X193952380Y-2252380D01*
X194095238Y-2300000D01*
X194714285Y-2252380D02*
X194904761Y-2252380D01*
X195000000Y-2300000D01*
X195095238Y-2395238D01*
X195142857Y-2585714D01*
X195142857Y-2919047D01*
X195095238Y-3109523D01*
X195000000Y-3204761D01*
X194904761Y-3252380D01*
X194714285Y-3252380D01*
X194619047Y-3204761D01*
X194523809Y-3109523D01*
X194476190Y-2919047D01*
X194476190Y-2585714D01*
X194523809Y-2395238D01*
X194619047Y-2300000D01*
X194714285Y-2252380D01*
X195904761Y-2728571D02*
X195571428Y-2728571D01*
X195571428Y-3252380D02*
X195571428Y-2252380D01*
X196047619Y-2252380D01*
X196285714Y-2252380D02*
X196857142Y-2252380D01*
X196571428Y-3252380D02*
X196571428Y-2252380D01*
X197857142Y-2252380D02*
X198476190Y-2252380D01*
X198142857Y-2633333D01*
X198285714Y-2633333D01*
X198380952Y-2680952D01*
X198428571Y-2728571D01*
X198476190Y-2823809D01*
X198476190Y-3061904D01*
X198428571Y-3157142D01*
X198380952Y-3204761D01*
X198285714Y-3252380D01*
X198000000Y-3252380D01*
X197904761Y-3204761D01*
X197857142Y-3157142D01*
X101690476Y-32904761D02*
X101833333Y-32952380D01*
X102071428Y-32952380D01*
X102166666Y-32904761D01*
X102214285Y-32857142D01*
X102261904Y-32761904D01*
X102261904Y-32666666D01*
X102214285Y-32571428D01*
X102166666Y-32523809D01*
X102071428Y-32476190D01*
X101880952Y-32428571D01*
X101785714Y-32380952D01*
X101738095Y-32333333D01*
X101690476Y-32238095D01*
X101690476Y-32142857D01*
X101738095Y-32047619D01*
X101785714Y-32000000D01*
X101880952Y-31952380D01*
X102119047Y-31952380D01*
X102261904Y-32000000D01*
X102595238Y-31952380D02*
X102833333Y-32952380D01*
X103023809Y-32238095D01*
X103214285Y-32952380D01*
X103452380Y-31952380D01*
X104261904Y-32285714D02*
X104261904Y-32952380D01*
X104023809Y-31904761D02*
X103785714Y-32619047D01*
X104404761Y-32619047D01*
X105214285Y-32285714D02*
X105214285Y-32952380D01*
X104976190Y-31904761D02*
X104738095Y-32619047D01*
X105357142Y-32619047D01*
X103166666Y-19952380D02*
X103500000Y-20952380D01*
X103833333Y-19952380D01*
X35366666Y-65904761D02*
X35509523Y-65952380D01*
X35747619Y-65952380D01*
X35842857Y-65904761D01*
X35890476Y-65857142D01*
X35938095Y-65761904D01*
X35938095Y-65666666D01*
X35890476Y-65571428D01*
X35842857Y-65523809D01*
X35747619Y-65476190D01*
X35557142Y-65428571D01*
X35461904Y-65380952D01*
X35414285Y-65333333D01*
X35366666Y-65238095D01*
X35366666Y-65142857D01*
X35414285Y-65047619D01*
X35461904Y-65000000D01*
X35557142Y-64952380D01*
X35795238Y-64952380D01*
X35938095Y-65000000D01*
X36271428Y-64952380D02*
X36509523Y-65952380D01*
X36700000Y-65238095D01*
X36890476Y-65952380D01*
X37128571Y-64952380D01*
X37461904Y-65047619D02*
X37509523Y-65000000D01*
X37604761Y-64952380D01*
X37842857Y-64952380D01*
X37938095Y-65000000D01*
X37985714Y-65047619D01*
X38033333Y-65142857D01*
X38033333Y-65238095D01*
X37985714Y-65380952D01*
X37414285Y-65952380D01*
X38033333Y-65952380D01*
X36414285Y-53047619D02*
X36461904Y-53000000D01*
X36557142Y-52952380D01*
X36795238Y-52952380D01*
X36890476Y-53000000D01*
X36938095Y-53047619D01*
X36985714Y-53142857D01*
X36985714Y-53238095D01*
X36938095Y-53380952D01*
X36366666Y-53952380D01*
X36985714Y-53952380D01*
X16366666Y-65904761D02*
X16509523Y-65952380D01*
X16747619Y-65952380D01*
X16842857Y-65904761D01*
X16890476Y-65857142D01*
X16938095Y-65761904D01*
X16938095Y-65666666D01*
X16890476Y-65571428D01*
X16842857Y-65523809D01*
X16747619Y-65476190D01*
X16557142Y-65428571D01*
X16461904Y-65380952D01*
X16414285Y-65333333D01*
X16366666Y-65238095D01*
X16366666Y-65142857D01*
X16414285Y-65047619D01*
X16461904Y-65000000D01*
X16557142Y-64952380D01*
X16795238Y-64952380D01*
X16938095Y-65000000D01*
X17271428Y-64952380D02*
X17509523Y-65952380D01*
X17700000Y-65238095D01*
X17890476Y-65952380D01*
X18128571Y-64952380D01*
X19033333Y-65952380D02*
X18461904Y-65952380D01*
X18747619Y-65952380D02*
X18747619Y-64952380D01*
X18652380Y-65095238D01*
X18557142Y-65190476D01*
X18461904Y-65238095D01*
X17985714Y-53952380D02*
X17414285Y-53952380D01*
X17700000Y-53952380D02*
X17700000Y-52952380D01*
X17604761Y-53095238D01*
X17509523Y-53190476D01*
X17414285Y-53238095D01*
X83166666Y-65904761D02*
X83309523Y-65952380D01*
X83547619Y-65952380D01*
X83642857Y-65904761D01*
X83690476Y-65857142D01*
X83738095Y-65761904D01*
X83738095Y-65666666D01*
X83690476Y-65571428D01*
X83642857Y-65523809D01*
X83547619Y-65476190D01*
X83357142Y-65428571D01*
X83261904Y-65380952D01*
X83214285Y-65333333D01*
X83166666Y-65238095D01*
X83166666Y-65142857D01*
X83214285Y-65047619D01*
X83261904Y-65000000D01*
X83357142Y-64952380D01*
X83595238Y-64952380D01*
X83738095Y-65000000D01*
X84071428Y-64952380D02*
X84309523Y-65952380D01*
X84500000Y-65238095D01*
X84690476Y-65952380D01*
X84928571Y-64952380D01*
X85214285Y-64952380D02*
X85833333Y-64952380D01*
X85500000Y-65333333D01*
X85642857Y-65333333D01*
X85738095Y-65380952D01*
X85785714Y-65428571D01*
X85833333Y-65523809D01*
X85833333Y-65761904D01*
X85785714Y-65857142D01*
X85738095Y-65904761D01*
X85642857Y-65952380D01*
X85357142Y-65952380D01*
X85261904Y-65904761D01*
X85214285Y-65857142D01*
X84238095Y-53952380D02*
X84238095Y-52952380D01*
X84809523Y-53952380D02*
X84380952Y-53380952D01*
X84809523Y-52952380D02*
X84238095Y-53523809D01*
M02*
