G04 #@! TF.GenerationSoftware,KiCad,Pcbnew,(5.1.5)-3*
G04 #@! TF.CreationDate,2020-01-30T23:29:56+01:00*
G04 #@! TF.ProjectId,3003,33303033-2e6b-4696-9361-645f70636258,rev?*
G04 #@! TF.SameCoordinates,Original*
G04 #@! TF.FileFunction,Profile,NP*
%FSLAX46Y46*%
G04 Gerber Fmt 4.6, Leading zero omitted, Abs format (unit mm)*
G04 Created by KiCad (PCBNEW (5.1.5)-3) date 2020-01-30 23:29:56*
%MOMM*%
%LPD*%
G04 APERTURE LIST*
%ADD10C,0.100000*%
G04 APERTURE END LIST*
D10*
X188100000Y-62100000D02*
X188100000Y-67300000D01*
X180600000Y-62100000D02*
X188100000Y-62100000D01*
X180600000Y-67300000D02*
X188100000Y-67300000D01*
X180600000Y-67300000D02*
X180600000Y-62100000D01*
X188100000Y-17700000D02*
X188100000Y-22900000D01*
X180600000Y-17700000D02*
X188100000Y-17700000D01*
X180600000Y-22900000D02*
X188100000Y-22900000D01*
X180600000Y-22900000D02*
X180600000Y-17700000D01*
X73900000Y-62100000D02*
X73900000Y-67300000D01*
X66400000Y-62100000D02*
X73900000Y-62100000D01*
X66400000Y-67300000D02*
X73900000Y-67300000D01*
X66400000Y-67300000D02*
X66400000Y-62100000D01*
X73900000Y-17700000D02*
X73900000Y-22900000D01*
X66400000Y-17700000D02*
X73900000Y-17700000D01*
X66400000Y-22900000D02*
X66400000Y-17700000D01*
X66400000Y-22900000D02*
X73900000Y-22900000D01*
X266000000Y0D02*
X266000000Y-17700000D01*
X0Y0D02*
X266000000Y0D01*
X0Y0D02*
X0Y-17700000D01*
X0Y-17700000D02*
X8400000Y-17700000D01*
X8400000Y-17700000D02*
X8400000Y-22900000D01*
X0Y-22900000D02*
X8400000Y-22900000D01*
X0Y-22900000D02*
X0Y-62100000D01*
X0Y-62100000D02*
X8400000Y-62100000D01*
X8400000Y-62100000D02*
X8400000Y-67300000D01*
X0Y-67300000D02*
X8400000Y-67300000D01*
X0Y-67300000D02*
X0Y-85000000D01*
X0Y-85000000D02*
X203000000Y-85000000D01*
X203000000Y-35500000D02*
X203000000Y-85000000D01*
X266000000Y-35500000D02*
X203000000Y-35500000D01*
X266000000Y-22900000D02*
X266000000Y-35500000D01*
X257600000Y-22900000D02*
X266000000Y-22900000D01*
X257600000Y-17700000D02*
X257600000Y-22900000D01*
X266000000Y-17700000D02*
X257600000Y-17700000D01*
M02*
