M48
; DRILL file {KiCad (5.1.6)-1} date 09/21/20 19:07:06
; FORMAT={-:-/ absolute / inch / decimal}
; #@! TF.CreationDate,2020-09-21T19:07:06+02:00
; #@! TF.GenerationSoftware,Kicad,Pcbnew,(5.1.6)-1
FMAT,2
INCH
T1C0.0157
T2C0.0300
T3C0.0394
T4C0.1378
T5C0.1772
T6C0.1575
%
G90
G05
T1
X0.1969Y-1.1811
X0.1969Y-1.5748
X0.1969Y-2.1654
X0.315Y-1.0039
X0.315Y-2.3622
X0.3346Y-3.2087
X0.7Y-0.75
X0.7Y-1.4
X0.7Y-2.64
X0.7874Y-1.9685
X1.42Y-2.66
X1.44Y-0.68
X1.44Y-2.02
X1.46Y-1.36
X2.1654Y-0.7874
X2.1654Y-1.378
X2.18Y-2.66
X2.3622Y-1.9685
X2.5689Y-1.1909
X2.6Y-0.22
X2.6378Y-1.6831
X2.6476Y-0.6299
X2.75Y-2.85
X2.75Y-3.1
X2.7559Y-1.378
X2.7559Y-2.1654
X2.85Y-1.9
X2.8839Y-1.7126
X3.1496Y-1.9685
X3.16Y-2.66
X3.35Y-0.2
X3.45Y-1.4
X3.7402Y-0.6496
X3.9Y-0.65
X4.06Y-1.34
X4.2717Y-0.128
X4.3307Y-1.9685
X4.4Y-2.7
X4.64Y-2.04
X4.65Y-0.7
X5.0Y-1.35
X5.1181Y-2.7559
X5.1575Y-0.4528
X5.2Y-1.8
X5.2Y-3.05
X5.22Y-1.42
X5.22Y-2.18
X5.2264Y-2.5197
X5.35Y-0.75
X5.35Y-0.95
X5.55Y-1.95
X5.55Y-2.05
X5.55Y-2.2
X5.56Y-2.96
X5.6102Y-1.8406
X5.6604Y-1.4523
X5.78Y-0.68
X5.8Y-2.68
X5.84Y-2.04
X5.96Y-1.36
X6.45Y-0.7
X6.4961Y-1.9685
X6.58Y-1.32
X6.88Y-2.68
X6.8898Y-1.9685
X7.0Y-0.75
X7.25Y-0.25
X7.8Y-2.15
X7.8553Y-1.6572
X7.8553Y-1.7618
X8.15Y-0.75
X8.6614Y-0.5906
X9.26Y-0.2
X9.55Y-0.75
T2
X1.937Y-1.6929
X2.4488Y-1.6929
X6.437Y-1.6929
X6.9488Y-1.6929
X5.689Y-1.0433
X6.2008Y-1.0433
X0.4409Y-1.6929
X0.9528Y-1.6929
X1.9961Y-0.2362
X2.3898Y-0.2362
X3.0709Y-1.6929
X3.5827Y-1.6929
X0.4409Y-2.3425
X0.9528Y-2.3425
X1.189Y-2.3425
X1.7008Y-2.3425
X3.8189Y-2.9921
X5.0787Y-2.9921
X1.189Y-2.9921
X1.7008Y-2.9921
X1.189Y-1.6929
X1.7008Y-1.6929
X3.4331Y-0.4331
X3.9449Y-0.4331
X1.248Y-0.2362
X1.6417Y-0.2362
X3.4921Y-0.2362
X3.8858Y-0.2362
X0.4409Y-2.9921
X0.9528Y-2.9921
X1.937Y-2.3425
X2.4488Y-2.3425
X1.937Y-2.9921
X2.4488Y-2.9921
X2.685Y-0.4331
X3.1969Y-0.4331
X3.0709Y-1.0433
X3.5827Y-1.0433
X0.4409Y-1.0433
X0.9528Y-1.0433
X3.8189Y-2.3425
X4.3307Y-2.3425
X3.0709Y-2.9921
X3.5827Y-2.9921
X3.8189Y-1.0433
X4.3307Y-1.0433
X8.4843Y-0.3465
X8.9961Y-0.3465
X5.689Y-2.9921
X6.2008Y-2.9921
X5.4134Y-0.3465
X5.9252Y-0.3465
X3.8189Y-1.6929
X4.3307Y-1.6929
X2.7441Y-0.2362
X3.1378Y-0.2362
X3.0709Y-2.3425
X3.5827Y-2.3425
X6.437Y-2.3425
X6.9488Y-2.3425
X9.5079Y-0.3465
X10.0197Y-0.3465
X1.189Y-0.4331
X1.7008Y-0.4331
X7.5551Y-1.0433
X8.0669Y-1.0433
X1.937Y-1.0433
X2.4488Y-1.0433
X8.4843Y-1.0433
X8.9961Y-1.0433
X7.4606Y-0.3465
X7.9724Y-0.3465
X6.437Y-1.0433
X6.9488Y-1.0433
X4.5669Y-1.6929
X5.0787Y-1.6929
X5.689Y-1.6929
X6.2008Y-1.6929
X5.689Y-2.3425
X6.2008Y-2.3425
X6.437Y-2.9921
X6.9488Y-2.9921
X6.437Y-0.3465
X6.9488Y-0.3465
X4.5669Y-1.0433
X5.0787Y-1.0433
X9.4094Y-1.0433
X9.9213Y-1.0433
X4.5669Y-2.3425
X5.0787Y-2.3425
X4.3898Y-0.3465
X4.9016Y-0.3465
X1.189Y-1.0433
X1.7008Y-1.0433
X1.937Y-0.4331
X2.4488Y-0.4331
X0.4409Y-0.3465
X0.9528Y-0.3465
T3
X7.4213Y-1.6654
X7.4213Y-1.7654
X7.4213Y-1.8654
X7.4213Y-1.9654
X5.3543Y-1.2693
X5.3543Y-1.3693
X5.3543Y-1.4693
X5.3543Y-1.5693
X5.3543Y-1.6693
X5.3543Y-1.7693
X5.3543Y-1.8693
X5.3543Y-1.9693
X5.3543Y-2.0693
X5.3543Y-2.1693
X5.3543Y-2.2693
X5.3543Y-2.3693
X5.3543Y-2.4693
X5.3543Y-2.5693
X5.3543Y-2.6693
X5.3543Y-2.7693
X5.3543Y-2.8693
X5.3543Y-2.9693
X5.3543Y-3.0693
X5.3543Y-3.1693
X5.4543Y-1.2693
X5.4543Y-1.3693
X5.4543Y-1.4693
X5.4543Y-1.5693
X5.4543Y-1.6693
X5.4543Y-1.7693
X5.4543Y-1.8693
X5.4543Y-1.9693
X5.4543Y-2.0693
X5.4543Y-2.1693
X5.4543Y-2.2693
X5.4543Y-2.3693
X5.4543Y-2.4693
X5.4543Y-2.5693
X5.4543Y-2.6693
X5.4543Y-2.7693
X5.4543Y-2.8693
X5.4543Y-2.9693
X5.4543Y-3.0693
X5.4543Y-3.1693
X7.6378Y-2.7197
X7.6378Y-2.8197
X7.6378Y-2.9197
X7.6378Y-3.0197
T4
X0.1772Y-0.3386
X0.1772Y-3.1181
X3.6969Y-2.6732
X4.1772Y-0.3386
X6.189Y-0.3386
X7.2638Y-1.1732
X7.2638Y-3.1181
X10.2992Y-0.3386
X10.2992Y-1.1732
T5
X1.0709Y-1.3701
X1.8189Y-2.6732
X4.4488Y-1.3701
X6.3189Y-1.3701
X6.3189Y-2.6732
X8.2402Y-0.3386
X9.2126Y-1.0433
T6
X2.1929Y-0.2362
X1.4449Y-0.2362
X3.689Y-0.2362
X2.9409Y-0.2362
T0
M30
